<svg width="22" height="23" viewBox="0 0 22 23" fill="none" xmlns="http://www.w3.org/2000/svg">
<g clip-path="url(#clip0_40_300)">
<path d="M15.7089 0.601807H6.08739C2.72454 0.601807 0 3.32634 0 6.6892V16.3107C0 19.6736 2.72454 22.3981 6.08739 22.3981H15.7089C19.0718 22.3981 21.7963 19.6736 21.7963 16.3107V6.6892C21.7963 3.32634 19.0718 0.601807 15.7089 0.601807ZM20.1927 16.3107C20.1927 18.7861 18.1843 20.7945 15.7089 20.7945H13.6071V14.4892H15.8023L16.1604 11.7646H13.6227C13.6227 11.5934 13.6227 11.4221 13.6227 11.2509C13.6227 10.7994 13.6227 10.379 13.6227 9.94308C13.6538 9.39817 13.9496 9.10236 14.5101 9.07122C14.9927 9.04009 15.4909 9.05566 15.958 9.04009H16.2382V6.59579H16.0047C15.8957 6.56465 15.7712 6.54908 15.6622 6.54908C15.4909 6.54908 14.9305 6.48681 14.9305 6.48681C14.9305 6.48681 14.1053 6.40896 13.3113 6.58022C12.6419 6.72034 12.0969 7.00058 11.6766 7.45207C11.1317 8.02812 10.8514 8.74428 10.8047 9.66284C10.7892 10.1299 10.7892 10.597 10.8047 11.064C10.8047 11.2664 10.8047 11.4844 10.8047 11.6868V11.7958H8.59397V14.5203H10.8047V20.8257H6.08739C3.61196 20.8257 1.60358 18.8173 1.60358 16.3418V6.6892C1.60358 4.21376 3.61196 2.20539 6.08739 2.20539H15.7089C18.1843 2.20539 20.1927 4.21376 20.1927 6.6892V16.3107Z" fill="white"/>
</g>
<defs>
<clipPath id="clip0_40_300">
<rect width="21.7963" height="21.7963" fill="white" transform="translate(0 0.601807)"/>
</clipPath>
</defs>
</svg>
