<svg width="23" height="23" viewBox="0 0 23 23" fill="none" xmlns="http://www.w3.org/2000/svg">
<g clip-path="url(#clip0_40_302)">
<path d="M16.1103 0.601807H6.48876C3.1259 0.601807 0.401367 3.32634 0.401367 6.6892V16.3107C0.401367 19.6736 3.1259 22.3981 6.48876 22.3981H16.1103C19.4731 22.3981 22.1977 19.6736 22.1977 16.3107V6.6892C22.1977 3.32634 19.4731 0.601807 16.1103 0.601807ZM20.5941 16.3107C20.5941 18.7861 18.5857 20.7945 16.1103 20.7945H6.48876C4.01332 20.7945 2.00495 18.7861 2.00495 16.3107V6.6892C2.00495 4.21376 4.01332 2.20539 6.48876 2.20539H16.1103C18.5857 2.20539 20.5941 4.21376 20.5941 6.6892V16.3107Z" fill="white"/>
<path d="M11.2995 6.00415C8.2792 6.00415 5.81934 8.46402 5.81934 11.4844C5.81934 14.5047 8.2792 16.9646 11.2995 16.9646C14.3199 16.9646 16.7798 14.5047 16.7798 11.4844C16.7798 8.46402 14.3199 6.00415 11.2995 6.00415ZM11.2995 15.361C9.16662 15.361 7.42292 13.6173 7.42292 11.4844C7.42292 9.35144 9.16662 7.60774 11.2995 7.60774C13.4325 7.60774 15.1762 9.35144 15.1762 11.4844C15.1762 13.6173 13.4325 15.361 11.2995 15.361Z" fill="white"/>
<path d="M17.231 6.54913C17.8243 6.54913 18.3052 6.06817 18.3052 5.47488C18.3052 4.88159 17.8243 4.40063 17.231 4.40063C16.6377 4.40063 16.1567 4.88159 16.1567 5.47488C16.1567 6.06817 16.6377 6.54913 17.231 6.54913Z" fill="white"/>
</g>
<defs>
<clipPath id="clip0_40_302">
<rect width="21.7963" height="21.7963" fill="white" transform="translate(0.401367 0.601807)"/>
</clipPath>
</defs>
</svg>
