<svg width="23" height="23" viewBox="0 0 23 23" fill="none" xmlns="http://www.w3.org/2000/svg">
<g clip-path="url(#clip0_40_306)">
<path d="M16.5111 0.601807H6.88964C3.52678 0.601807 0.802246 3.32634 0.802246 6.6892V16.3107C0.802246 19.6736 3.52678 22.3981 6.88964 22.3981H16.5111C19.874 22.3981 22.5985 19.6736 22.5985 16.3107V6.6892C22.5985 3.32634 19.874 0.601807 16.5111 0.601807ZM20.995 16.3107C20.995 18.7861 18.9866 20.7945 16.5111 20.7945H6.88964C4.4142 20.7945 2.40583 18.7861 2.40583 16.3107V6.6892C2.40583 4.21376 4.4142 2.20539 6.88964 2.20539H16.5111C18.9866 2.20539 20.995 4.21376 20.995 6.6892V16.3107Z" fill="white"/>
<path d="M17.0247 8.29277C15.6391 8.24606 14.4403 7.23409 14.1601 5.87961C14.129 5.73949 14.1134 5.59937 14.0978 5.45925C14.0978 5.39697 14.0822 5.31913 14.0667 5.25686V5.19458H11.9026V5.44368C11.9026 6.75146 11.9026 8.0748 11.9026 9.38258C11.9026 9.84965 11.9026 10.3167 11.9026 10.7993C11.9026 11.7957 11.9026 12.8233 11.9026 13.8197C11.9026 14.3646 11.6847 14.8472 11.2954 15.1897C10.9062 15.5323 10.408 15.6879 9.90981 15.6257C9.42718 15.5634 9.00682 15.3143 8.72658 14.9406C8.44634 14.567 8.32179 14.0844 8.38407 13.6017C8.44634 13.1658 8.67988 12.761 9.05353 12.4808C9.42718 12.2005 9.92538 12.076 10.3769 12.1383C10.4391 12.1383 10.517 12.1694 10.5793 12.1694L10.7661 12.2005V9.98977H10.7038C10.299 9.91192 9.89424 9.91192 9.45832 9.98977C7.35653 10.3323 5.90863 12.2628 6.15773 14.3802C6.36013 15.9682 7.59006 17.3382 9.14694 17.6963C9.33377 17.743 9.53616 17.7586 9.72298 17.7897C9.8164 17.7897 9.89424 17.8053 9.98765 17.8209H10.2523H10.299C10.3302 17.8209 10.3613 17.8209 10.3769 17.8209C11.6847 17.7119 12.7122 17.1203 13.4439 16.046C13.8798 15.4077 14.0978 14.676 14.0822 13.8353C14.0822 12.4029 14.0822 10.9706 14.0822 9.5227C14.5337 9.83408 14.9852 10.0676 15.4679 10.2389C16.0128 10.4257 16.5577 10.5191 17.1026 10.5191C17.1182 10.5191 17.1337 10.5191 17.1493 10.5191H17.2271V9.84965C17.2271 9.42929 17.2271 8.99336 17.2271 8.57301C17.2271 8.41732 17.1649 8.33947 16.9936 8.33947L17.0247 8.29277Z" fill="white"/>
</g>
<defs>
<clipPath id="clip0_40_306">
<rect width="21.7963" height="21.7963" fill="white" transform="translate(0.802246 0.601807)"/>
</clipPath>
</defs>
</svg>
