<svg width="22" height="23" viewBox="0 0 22 23" fill="none" xmlns="http://www.w3.org/2000/svg">
<g clip-path="url(#clip0_40_309)">
<path d="M15.9125 0.601807H6.29101C2.92815 0.601807 0.203613 3.32634 0.203613 6.6892V16.3107C0.203613 19.6736 2.92815 22.3981 6.29101 22.3981H15.9125C19.2754 22.3981 21.9999 19.6736 21.9999 16.3107V6.6892C21.9999 3.32634 19.2754 0.601807 15.9125 0.601807ZM20.3963 16.3107C20.3963 18.7861 18.388 20.7945 15.9125 20.7945H6.29101C3.81557 20.7945 1.8072 18.7861 1.8072 16.3107V6.6892C1.8072 4.21376 3.81557 2.20539 6.29101 2.20539H15.9125C18.388 2.20539 20.3963 4.21376 20.3963 6.6892V16.3107Z" fill="#FDFCFC"/>
<path d="M17.6249 6.93836C17.6561 6.84494 17.7028 6.75153 17.7183 6.65812C17.7962 6.40902 17.7183 6.15992 17.5004 6.00423C17.298 5.86411 17.0489 5.84854 16.8153 5.97309C16.4573 6.17549 16.0836 6.34674 15.6477 6.47129C14.9782 5.89525 14.1842 5.64615 13.2968 5.70842C12.892 5.73956 12.5028 5.84854 12.1291 6.03537C11.5531 6.31561 11.086 6.75153 10.7435 7.34314C10.6034 7.59225 10.4944 7.87248 10.4166 8.15272C10.3543 8.38625 10.3232 8.61978 10.3232 8.83775C9.93394 8.77547 9.57586 8.69763 9.26448 8.58865C8.68844 8.40182 8.17467 8.15272 7.70761 7.85691C7.31839 7.60781 6.97587 7.34314 6.68007 7.06291C6.44653 6.84494 6.24414 6.64255 6.07288 6.42459C5.93276 6.25333 5.7148 6.15992 5.52798 6.17549C5.32558 6.19105 5.15432 6.3156 5.02977 6.518C4.7184 7.06291 4.59385 7.67009 4.62499 8.30841C4.64055 8.69763 4.73397 9.07128 4.90522 9.42936C4.78067 9.49164 4.68726 9.61619 4.64055 9.75631C4.56271 9.94313 4.59385 10.1144 4.60942 10.3168C4.65612 10.7527 4.79624 11.1731 5.01421 11.5623C5.16989 11.827 5.35672 12.0761 5.59025 12.294C5.51241 12.4341 5.49684 12.6054 5.55911 12.8078C5.76151 13.415 6.11959 13.9287 6.6645 14.3491C6.77348 14.4425 6.89803 14.5204 7.03815 14.5982C6.69563 14.7227 6.35312 14.8162 5.99504 14.8784C5.60582 14.9407 5.2166 14.9407 4.78067 14.9096C4.4693 14.894 4.2202 15.0186 4.11122 15.2988C4.0178 15.5479 4.11122 15.8281 4.36032 16.015C4.45373 16.0772 4.53157 16.1239 4.62499 16.1862L4.73397 16.2485C5.29444 16.5754 5.90163 16.8245 6.60222 17.0269C7.11599 17.167 7.64533 17.2605 8.19024 17.2916C8.37706 17.2916 8.54832 17.3072 8.73514 17.3072C9.06209 17.3072 9.37347 17.2916 9.68484 17.2605C10.1986 17.1982 10.6968 17.1048 11.1794 16.9647C11.7088 16.7934 12.2226 16.591 12.6896 16.3263C13.1411 16.0772 13.577 15.7659 13.9974 15.4078C14.4645 15.003 14.9004 14.5359 15.3052 13.9599C15.492 13.7108 15.6633 13.415 15.8345 13.088C16.0836 12.621 16.2704 12.1539 16.4261 11.6868C16.6908 10.8306 16.8153 10.0054 16.7998 9.19583C17.0956 8.9623 17.3447 8.72877 17.5471 8.47967L17.6249 8.38625C17.765 8.215 17.9207 8.02817 18.0453 7.81021C18.1387 7.63895 18.1387 7.45213 18.0453 7.28087C17.9519 7.10961 17.7962 6.98506 17.6249 6.95393V6.93836ZM15.9279 8.33955C15.6633 8.49523 15.5543 8.7599 15.601 9.08685C15.6165 9.24254 15.601 9.41379 15.601 9.58505V9.75631C15.5698 10.0833 15.5076 10.4413 15.4142 10.8617C15.2896 11.3755 15.1028 11.8892 14.8537 12.3563C14.5734 12.9168 14.2309 13.415 13.8261 13.8665C13.3124 14.4425 12.7208 14.9096 12.0513 15.2677C11.5375 15.5479 10.9615 15.7659 10.3699 15.8904C9.98065 15.9838 9.57586 16.0305 9.1088 16.0617C8.81299 16.0772 8.51718 16.0772 8.22137 16.0617C7.86329 16.0305 7.48964 15.9683 7.13156 15.8904C7.11599 15.8904 7.10042 15.8904 7.08485 15.8904C7.24054 15.8437 7.39623 15.7814 7.56749 15.7192C7.98784 15.5479 8.39263 15.3299 8.82856 15.0186C8.95311 14.9251 9.13993 14.8006 9.20221 14.5204C9.23335 14.3647 9.20221 14.1934 9.09323 14.0689C8.99981 13.9443 8.85969 13.8509 8.70401 13.8353H8.53275C8.43934 13.8042 8.34593 13.8042 8.25251 13.7886C7.83216 13.6952 7.48964 13.5084 7.2094 13.2126C7.30282 13.2126 7.38066 13.1814 7.47407 13.1503C7.76988 13.0725 7.95671 12.8389 7.95671 12.5587C7.95671 12.2629 7.76988 12.0449 7.4585 11.9671C7.00701 11.8737 6.64893 11.6557 6.35312 11.3132C6.22857 11.1731 6.11959 11.0174 6.04175 10.8461C6.15073 10.8617 6.27528 10.8773 6.39983 10.8773C6.83575 10.8773 6.9603 10.5815 7.00701 10.4569C7.08485 10.1922 6.99144 9.92756 6.74234 9.75631C6.24414 9.39822 5.94833 8.93116 5.87049 8.32398C5.85492 8.18386 5.85492 8.04374 5.87049 7.91919C6.19743 8.23057 6.53995 8.5108 6.9136 8.7599C7.47407 9.13355 8.08126 9.44493 8.73514 9.66289C9.29562 9.86529 9.87167 9.98984 10.4633 10.0677C10.6501 10.0833 10.8369 10.1144 11.0238 10.1144C11.195 10.1144 11.3663 10.0521 11.4908 9.91199C11.6154 9.77187 11.6621 9.56948 11.6309 9.39822C11.5531 9.04014 11.5687 8.68206 11.6621 8.35512C11.7711 7.9659 11.989 7.65452 12.316 7.37428C12.5339 7.18746 12.7675 7.06291 13.0321 6.98506C13.4058 6.87608 13.7639 6.87608 14.1064 6.96949C14.4956 7.07848 14.6824 7.14075 14.916 7.40542C15.1962 7.7168 15.5387 7.62338 15.71 7.57668H15.7878C15.5698 7.68566 15.2896 7.85691 15.2896 7.85691C15.1495 7.93476 15.1028 8.10602 15.1651 8.2617C15.2273 8.40182 15.3986 8.47967 15.5543 8.41739C15.7255 8.35512 15.8968 8.30841 16.0525 8.24613C16.0058 8.29284 15.9746 8.33955 15.9746 8.33955H15.9279Z" fill="#FDFCFC"/>
</g>
<defs>
<clipPath id="clip0_40_309">
<rect width="21.7963" height="21.7963" fill="white" transform="translate(0.203613 0.601807)"/>
</clipPath>
</defs>
</svg>
