<?xml version="1.0" encoding="UTF-8"?>
<svg id="Camada_2" data-name="Camada 2" xmlns="http://www.w3.org/2000/svg" viewBox="0 0 408.4 139.54">
  <defs>
    <style>
      .cls-1 {
        fill: #9ac21c;
      }

      .cls-2 {
        fill: #fff;
      }

      .cls-3 {
        fill: #088744;
      }

      .cls-4 {
        fill: #ffe400;
      }

      .cls-5 {
        fill: #ec1c24;
      }

      .cls-6 {
        fill: none;
      }

      .cls-7 {
        fill: #09539f;
      }

      .cls-8 {
        fill: #951b1e;
      }

      .cls-9 {
        fill: #ec2024;
      }
    </style>
  </defs>
  <g id="Camada_1-2" data-name="Camada 1">
    <g>
      <path class="cls-5" d="M39.57,126.9c-.41-.88-2.86-5.95-3.42-7.33-3.21-7.83-6.62-15.51-9.29-23.8-4-12.42-7.66-25.06-7.48-39.5,.12-9.84,2.34-18.75,8.2-25.53,3.67-4.25,7.89-6.66,12.26-8.76,.02-.01,.04-.02,.07-.03,1.61-.78,.98-3.2-.8-3.11-6.88,.38-13.69,2.23-20.33,6.43C6.87,32.78,1.25,46.29,.2,63.64c-1.14,18.76,2.78,35.56,6.9,52.41,3.91,16.28,7.24,16.08,13.47,18.2,2.08,.71,15.63,3.75,22.08,5.23,1.34,.31,2.44-1.07,1.84-2.31-1.76-3.64-3.36-6.95-4.92-10.29"/>
      <path class="cls-2" d="M60.52,125.88c-.41-.88-2.86-5.95-3.42-7.33-3.21-7.83-6.62-15.51-9.29-23.8-4-12.42-7.66-25.06-7.48-39.5,.12-9.84,2.34-18.75,8.2-25.53,3.67-4.25,7.89-6.66,12.26-8.76,.02-.01,.04-.02,.07-.03,1.61-.78,.98-3.2-.8-3.11-6.88,.38-13.69,2.23-20.33,6.43-11.9,7.53-17.51,21.04-18.57,38.38-1.14,18.76,2.78,35.56,6.9,52.41,3.91,16.28,7.24,16.08,13.47,18.2,2.08,.71,15.63,3.75,22.08,5.23,1.34,.31,2.44-1.07,1.84-2.31-1.76-3.64-3.36-6.95-4.92-10.29"/>
      <path class="cls-1" d="M72.75,108.07c-.41-.88-2.86-5.95-3.42-7.33-3.21-7.83-6.62-15.51-9.29-23.8-4-12.42-7.66-25.06-7.48-39.5,.12-9.84,2.34-18.74,8.2-25.53,3.67-4.25,7.89-6.66,12.26-8.76l.07-.03c1.61-.78,.98-3.21-.8-3.11-6.88,.38-13.69,2.23-20.33,6.43-11.9,7.53-17.51,21.04-18.57,38.38-1.14,18.76,2.78,35.56,6.9,52.41,3.91,16.28,7.24,16.08,13.47,18.2,2.08,.71,15.63,3.75,22.08,5.23,1.34,.31,2.44-1.07,1.84-2.31-1.76-3.64-3.36-6.95-4.92-10.29"/>
      <polygon class="cls-2" points="103.58 19.86 97.52 70.08 84.98 70.08 91.04 19.86 103.58 19.86"/>
      <path class="cls-2" d="M108.07,57.17l2.12-17.32h-5.86l1.01-8.72h5.92l1.02-8.35,12.47-1.11-1.15,9.38h9.7l-1.66,8.8h-9.11l-2.11,17.23c-.39,2.9,.6,4.35,2.97,4.35,1.21,0,2.51-.25,3.91-.75l.14,8.27c-2.9,1.35-5.94,2.03-9.13,2.03-1.31,0-2.48-.09-3.53-.26-1.04-.18-1.94-.4-2.69-.68-.75-.27-1.39-.68-1.93-1.2-.53-.53-.97-.99-1.31-1.39-.34-.4-.61-.99-.8-1.77-.19-.78-.33-1.42-.4-1.92-.07-.5-.08-1.23-.04-2.18,.05-.95,.1-1.66,.16-2.14,.06-.47,.15-1.23,.28-2.28"/>
      <path class="cls-2" d="M168.78,68.65c-2.8,1.55-5.67,2.33-8.61,2.33-3.33,0-5.62-1.15-6.88-3.46-2.03,2.26-4.66,3.38-7.89,3.38-5.26,0-8.92-1.84-10.97-5.53-2.05-3.68-2.74-8.38-2.06-14.1,.34-2.71,.96-5.23,1.88-7.56,.92-2.33,2.21-4.5,3.87-6.5,1.66-2,3.87-3.58,6.62-4.74,2.75-1.15,5.89-1.73,9.41-1.73,4.44,0,8.95,1.1,13.54,3.3l-2.82,24.36c-.24,1.66,.36,2.49,1.81,2.49,.72,0,1.42-.15,2.1-.45v8.2Zm-16.19-8.12l2.38-19.93c-.82-.3-1.64-.45-2.45-.45-4.3,0-6.9,3.94-7.82,11.8-.34,2.71-.16,4.98,.54,6.8,.7,1.83,1.97,2.74,3.8,2.74,1.45,0,2.63-.33,3.55-.98"/>
      <path class="cls-2" d="M206.43,34.05l-4.2,35.79c-.77,6.57-3.03,11.27-6.77,14.11-3.74,2.83-8.22,4.25-13.43,4.25-4.73,0-9.65-1-14.77-3.01l2.53-9.47c4.63,1.6,9.19,2.41,13.68,2.41,1.93,0,3.44-.73,4.53-2.18,1.09-1.45,1.85-3.79,2.28-6.99-1.74,1.6-4.2,2.41-7.38,2.41-4.88,0-8.37-1.88-10.5-5.64-2.12-3.76-2.87-8.37-2.24-13.84,.34-2.86,.98-5.48,1.92-7.86,.94-2.38,2.24-4.61,3.91-6.69,1.66-2.08,3.9-3.71,6.7-4.89,2.8-1.18,6.03-1.77,9.7-1.77,4.68,0,9.36,1.12,14.05,3.37m-23.87,17.53c-.87,6.82,.89,10.23,5.28,10.23,1.16,0,2.29-.3,3.4-.9l2.45-20.3c-.96-.25-1.95-.37-2.96-.37-2.75,0-4.71,1.07-5.86,3.2-1.16,2.13-1.93,4.85-2.32,8.16"/>
      <path class="cls-2" d="M229.79,67.53c-2.7,2.26-5.92,3.38-9.68,3.38s-6.65-1.04-8.67-3.12c-2.02-2.08-2.77-5.4-2.24-9.96l3.04-26.32h12.03l-2.75,23.84c-.48,3.96,.67,5.94,3.47,5.94,1.59,0,2.96-.38,4.12-1.13l3.33-28.65h12.03l-3.13,26.91c-.24,1.66,.36,2.49,1.81,2.49,.72,0,1.42-.15,2.1-.45v8.2c-2.8,1.55-5.67,2.33-8.61,2.33-3.32,0-5.61-1.15-6.86-3.46"/>
      <path class="cls-2" d="M284.24,68.65c-2.8,1.55-5.67,2.33-8.61,2.33-3.33,0-5.62-1.15-6.88-3.46-2.03,2.26-4.66,3.38-7.89,3.38-5.26,0-8.92-1.84-10.97-5.53-2.05-3.68-2.74-8.38-2.06-14.1,.34-2.71,.97-5.23,1.88-7.56,.92-2.33,2.21-4.5,3.87-6.5,1.66-2,3.87-3.58,6.62-4.74,2.75-1.15,5.89-1.73,9.41-1.73,4.44,0,8.95,1.1,13.54,3.3l-2.82,24.36c-.24,1.66,.36,2.49,1.81,2.49,.72,0,1.42-.15,2.1-.45v8.2Zm-16.19-8.12l2.38-19.93c-.82-.3-1.64-.45-2.45-.45-4.3,0-6.9,3.94-7.82,11.8-.34,2.71-.16,4.98,.54,6.8,.7,1.83,1.97,2.74,3.8,2.74,1.45,0,2.63-.33,3.55-.98"/>
      <path class="cls-2" d="M301.79,31.06l-4.61,39.02h-12.33l4.61-39.02h12.33Zm6.37-10.45l-16.94,6.62-2.03-7.29,15.93-9.4,3.04,10.08Z"/>
      <g>
        <g>
          <path class="cls-2" d="M341.47,113.25l-2.13-1.33c-.08-.05-.13-.1-.15-.14-.03-.05-.04-.1-.04-.14,0-.05,0-.09,.02-.13,.02-.04,.03-.07,.05-.1,.08-.13,.2-.19,.35-.17h.06c.14,.01,.26-.05,.36-.17l2.21-3.54c.06-.16,.06-.29,0-.4l-.02-.02v-.03c-.09-.13-.09-.26-.01-.39,.13-.21,.3-.25,.52-.11l2.13,1.33c.14,.09,.2,.22,.18,.38-.01,.06-.03,.1-.06,.14-.07,.11-.19,.17-.35,.17h-.05c-.13-.02-.25,.04-.37,.17l-2.21,3.54c-.07,.16-.07,.29,0,.41l.02,.05c.07,.14,.07,.28,0,.39-.03,.05-.06,.08-.1,.11-.13,.1-.27,.1-.42,0Z"/>
          <path class="cls-2" d="M351.1,111.92c-.02,.09-.03,.15-.04,.17-.04,.11-.12,.18-.24,.23-.14,.05-.28,.04-.4-.04-.17-.1-.26-.29-.28-.55,0-.17-.04-.29-.1-.38-.06-.09-.18-.19-.36-.29l-.14-.06-1.67,4.1c-.05,.16-.02,.3,.07,.4l.02,.02,.02,.03c.1,.12,.12,.25,.06,.39-.09,.23-.26,.29-.5,.19l-2.32-.95c-.18-.07-.26-.19-.24-.34,0-.05,0-.1,.02-.16,.06-.14,.16-.21,.31-.22h.06c.14-.01,.25-.09,.33-.24l.04-.08,1.64-4.01-.13-.05c-.1-.02-.19-.04-.26-.05-.07,0-.14,0-.2,0s-.12,.04-.18,.07c-.06,.03-.12,.08-.19,.13-.21,.18-.4,.24-.58,.19-.15-.04-.26-.12-.31-.24-.05-.13-.06-.24,0-.36,0-.02,.1-.17,.29-.45l.25-.37,.06-.06c.13-.1,.26-.12,.39-.07l4.49,1.84c.13,.05,.2,.16,.23,.32v.08s-.08,.45-.08,.45c-.03,.15-.05,.27-.07,.36Z"/>
          <path class="cls-2" d="M356.42,118.4l-2.62-.54c-.16-.03-.27-.13-.31-.29,0-.06,0-.11,0-.16,.03-.13,.12-.22,.27-.28l.05-.02,.07-.02c.12-.04,.2-.12,.22-.24,.02-.1,.02-.32,0-.65l-.02-.26-1.96-.4-.1,.16c-.17,.28-.26,.47-.28,.59-.04,.18,.01,.32,.15,.43l.04,.04c.12,.11,.16,.23,.13,.37-.05,.24-.2,.34-.45,.29l-1.36-.28c-.23-.05-.33-.19-.28-.43,.03-.15,.12-.25,.25-.29l.06-.02c.08-.02,.16-.09,.24-.2l.1-.14,.02-.02,1.73-2.76c.44-.69,.83-1.19,1.17-1.5,.19-.17,.39-.27,.61-.29,.14-.01,.36,.01,.68,.07,.25,.05,.42,.16,.53,.32l.06,.1c.14,.26,.28,.78,.45,1.58,.02,.07,.04,.18,.07,.34,.03,.16,.06,.35,.11,.59,.04,.19,.07,.37,.1,.56,.03,.19,.06,.39,.08,.59l.14,1.01c.01,.08,.03,.17,.04,.27,.01,.09,.03,.2,.05,.31l.02,.06,.03,.15c.03,.13,.09,.22,.17,.28h.02s.02,.04,.02,.04c.12,.12,.16,.24,.13,.37-.01,.05-.03,.1-.06,.14-.09,.14-.22,.19-.4,.15Zm-2.53-4.08l-.04-.25-.05-.3-.02-.2c-.01-.1-.05-.27-.12-.5-.18,.23-.38,.51-.61,.86l-.12,.19-.1,.16-.11,.2-.11,.21,1.33,.27-.05-.63Z"/>
          <path class="cls-2" d="M364.57,117.68l-.08,.1c-.21,.25-.6,.47-1.16,.65-.48,.15-.93,.23-1.36,.25-.1,0-.18,0-.24,0-.07,0-.12,0-.17,0h-.21c-.66-.08-1.09-.14-1.28-.2-.34-.11-.72-.35-1.13-.72-.69-.63-1.02-1.43-1.01-2.43v-.16s.02-.09,.02-.17c0-.08,.02-.18,.03-.31,.03-.26,.2-.63,.51-1.11,.65-1.02,1.66-1.52,3.04-1.49,.71,.01,1.3,.11,1.78,.28l.26,.09c.3,.11,.51,.22,.63,.33,.09,.07,.13,.18,.13,.34,0,.2,0,.36-.01,.48s-.01,.2-.02,.25c-.06,.34-.19,.5-.4,.5-.28,0-.46-.12-.53-.33l-.09-.24c-.11-.3-.33-.52-.67-.67-.17-.07-.38-.11-.63-.12-.48,0-.86,.15-1.15,.49-.3,.35-.46,.84-.47,1.45,0,.02,0,.08-.01,.17,0,.09-.01,.14-.01,.17v.17s.07,.65,.07,.65c.04,.35,.17,.68,.4,.99,.26,.34,.55,.51,.88,.52,.47,0,.7-.24,.71-.76v-.35s0-.06,0-.06v-.08c-.05-.2-.16-.3-.34-.3h-.2s-.07,0-.13,0c-.35,0-.52-.15-.51-.42,0-.29,.11-.46,.3-.51,.14-.04,.53-.05,1.17-.04l1.64,.03c.23,0,.34,.12,.33,.35,0,.05-.01,.11-.03,.18l-.05,.18-.06,.28-.02,.17c0,.32,.04,.68,.13,1.06v.04s.03,.07,.03,.07c0,.08-.02,.17-.08,.24Z"/>
          <path class="cls-2" d="M371.72,111.13c.03,.14-.01,.26-.13,.37l-.04,.04c-.13,.12-.17,.29-.12,.52,0,.04,.02,.09,.03,.13,0,.04,.02,.09,.04,.14l.38,1.32c.03,.09,.05,.18,.07,.27,.02,.09,.04,.18,.06,.27,.22,.99,.22,1.77,.01,2.34-.2,.54-.79,.91-1.75,1.13l-.5,.11s-.06,0-.21,.02c-.15,.02-.4,.05-.72,.09-.49,.06-.96-.07-1.38-.41-.48-.38-.81-1.06-.97-2.03l-.17-1-.17-1.07c-.03-.2-.07-.34-.12-.41-.05-.07-.12-.12-.23-.15h-.03s-.03-.01-.03-.01c-.15-.03-.25-.12-.28-.28-.05-.24,.05-.39,.3-.44l2.35-.52c.26-.06,.41,.04,.46,.28,.03,.15,0,.28-.13,.37l-.05,.04c-.12,.09-.17,.22-.17,.4,.02,.1,.04,.26,.08,.47,.04,.21,.09,.49,.15,.83l.18,1.01c.03,.15,.05,.28,.07,.39s.04,.19,.05,.24c.08,.34,.21,.61,.39,.82,.11,.12,.27,.22,.47,.3,.23,.09,.45,.1,.66,.06,.47-.1,.78-.31,.92-.6,.08-.15,.1-.39,.04-.72,0-.01,0-.07-.03-.18-.08-.37-.15-.67-.21-.91-.06-.24-.1-.41-.13-.53l-.15-.56-.26-.92-.08-.26c-.03-.11-.12-.18-.26-.22h-.03s-.02-.02-.02-.02c-.15-.03-.24-.13-.27-.28-.05-.24,.05-.39,.3-.44l1.17-.26c.17-.04,.31,0,.4,.14,.03,.04,.05,.09,.06,.14Z"/>
          <path class="cls-2" d="M380.04,113.99l-2.44,1.07c-.15,.07-.29,.05-.42-.06-.04-.04-.07-.09-.09-.13-.05-.12-.03-.25,.06-.38l.03-.04,.04-.06c.08-.1,.09-.21,.04-.32-.04-.09-.17-.27-.38-.52l-.17-.2-1.83,.8,.02,.19c.03,.32,.06,.54,.11,.64,.07,.17,.2,.26,.37,.26h.05c.16,.03,.27,.1,.32,.23,.1,.23,.03,.39-.2,.49l-1.27,.56c-.22,.1-.38,.03-.48-.19-.06-.14-.05-.27,.04-.38l.04-.05c.06-.06,.08-.17,.08-.3v-.18s0-.03,0-.03l-.19-3.25c-.04-.82-.01-1.45,.08-1.9,.05-.25,.16-.44,.33-.59,.1-.09,.3-.2,.6-.33,.23-.1,.44-.12,.62-.04l.11,.04c.26,.13,.68,.47,1.27,1.03,.05,.05,.14,.13,.25,.24,.11,.11,.26,.25,.43,.42,.14,.13,.27,.27,.41,.4s.27,.28,.41,.43l.7,.75c.06,.06,.12,.12,.19,.19,.07,.07,.14,.15,.22,.23l.05,.04,.11,.1c.1,.09,.2,.13,.3,.13h.03s.03,0,.03,0c.16,.03,.27,.1,.32,.22,.02,.05,.03,.1,.03,.14,0,.16-.07,.28-.24,.35Zm-4.42-1.87l-.18-.18-.21-.22-.13-.15c-.07-.08-.19-.19-.39-.34-.02,.29-.02,.64,0,1.05v.22s.02,.18,.02,.18l.02,.23,.03,.23,1.24-.54-.41-.48Z"/>
          <path class="cls-2" d="M379.31,106.26c-.29,.46-.54,.76-.76,.9-.27,.17-.47,.17-.59-.02-.08-.13-.06-.35,.07-.66,.14-.31,.18-.51,.12-.6-.1-.15,.06-.36,.49-.64,.45-.29,.76-.29,.94,0,.12,.18,.03,.52-.28,1.03Zm4.44,5.33l-2.12,1.37c-.08,.05-.14,.07-.2,.08-.05,0-.1,0-.15-.02-.04-.02-.08-.04-.11-.08-.03-.03-.05-.06-.07-.09-.08-.13-.09-.26,0-.39l.03-.05c.06-.12,.06-.26,0-.4l-2.26-3.5c-.12-.13-.24-.18-.37-.17h-.03s-.03,0-.03,0c-.15,.02-.27-.04-.35-.17-.13-.21-.1-.38,.12-.52l2.12-1.36c.14-.09,.28-.09,.42,0,.04,.04,.08,.07,.11,.11,.07,.11,.07,.24,0,.38l-.02,.05c-.07,.11-.07,.25,0,.41l2.26,3.5c.11,.13,.24,.18,.37,.17h.05c.16,0,.28,.05,.35,.17,.03,.05,.05,.09,.06,.14,.03,.16-.03,.29-.18,.38Z"/>
        </g>
        <path class="cls-2" d="M394.56,18.77l-1.87-.89-.44-.21-.22,.44-.57,1.16-1.15-.54,.55-1.16,.22-.46-.47-.21-2.09-.93-.47-.21-.19,.48-2.01,5.06-.05,.13,.02,.13,.1,.66-1.32-.54-.48-.2-.18,.48-.56,1.5-.72-.28,.54-1.54,.17-.48-.48-.16-1.2-.4,.58-.54,.1-.09,.04-.13,1.58-5.06,.15-.49-.49-.14-2.09-.59-.48-.14-.13,.48-.34,1.23-1.06-.29,.29-1.25,.11-.48-.48-.12-2.85-.71-.51-.13-.1,.51-.25,1.27-1.14-.23,.25-1.32,.09-.49-.49-.09-2.12-.39-.5-.09-.08,.5-.51,3.08-.34,2.24-.02,.13,.05,.13,.26,.65-1.21-.18-.51-.07-.06,.51-.19,1.64-1-.11,.14-1.59,.04-.5-.5-.04-1.2-.1,.44-.68,.07-.11v-.13s.43-5.28,.43-5.28l.04-.51-.51-.03-2.18-.12-.5-.03-.11,1.84-1.16-.08,.03-1.8h-.49s-3.46-.04-3.46-.04l.03,.53,.07,1.3-1.11,.05-.08-1.3-.03-.49-.49,.02-2.2,.1-.51,.02,.04,.51,.41,5.14v.12s.07,.1,.07,.1l.49,.81-1.28,.12-.51,.05,.06,.51,.2,1.64-.98,.1-.26-1.57-.08-.47-.48,.06-1.18,.16,.27-.82,.04-.12-.02-.12-.86-5.23-.08-.51-.5,.1-2.07,.41-.48,.09,.08,.48,.22,1.29-1.14,.23-.33-1.3-.12-.48-.48,.11-2.78,.67-.49,.12,.12,.49,.32,1.28-1.04,.28-.4-1.27-.15-.47-.47,.15-2.09,.67-.48,.15,.16,.48,1.69,5.11,.04,.12,.09,.09,.5,.47-1.18,.41-.47,.16,.17,.47,.53,1.51-.68,.25-.63-1.48-.19-.45-.45,.18-1.26,.51,.1-.62,.02-.14-.05-.13-1.54-3.79-.52-1.35-.19-.49-.48,.22-2.12,.95-.47,.21,.23,.46,.58,1.17-1.14,.52-.58-1.18-.22-.44-.44,.21-1.86,.88-.47,.22,.24,.46,2.51,4.84,.06,.11,.1,.07,1.07,.73,3.59,7.1c-.12,.28-.23,.72,.03,1.1,.2,.29,.48,.43,.69,.49l1.34,2.67c-.07,.25-.13,.63,.07,.98,.22,.37,.51,.56,.88,.56,.19,0,.38-.05,.6-.16,.05-.02,.13-.06,.23-.11h44.43c.31,.13,.51,.22,.51,.22l.05,.02h.05s.12,.03,.25,.03c.59,0,.8-.35,.86-.5,.02-.05,.04-.09,.05-.12,.09-.2,.18-.43,.07-.73-.02-.05-.04-.1-.06-.15l1.35-2.73c.22-.04,.48-.14,.65-.38,.23-.32,.29-.71,.16-1.03-.03-.07-.07-.14-.11-.21l3.57-7.05,1.1-.74,.1-.07,.06-.11,2.52-4.82,.24-.46-.47-.22Zm-15.64,13.63c.82,.28,1.63,.58,2.43,.91l-.58,1.35c-.78-.31-1.56-.6-2.35-.88l.51-1.38Zm-.85,1.26c-.95-.32-1.9-.62-2.86-.89l.41-1.4c1,.28,1.98,.58,2.96,.91l-.51,1.38Zm3.61-.21c1.24,.51,2.47,1.06,3.66,1.66l-.65,1.31c-1.18-.59-2.37-1.12-3.59-1.62l.58-1.35Zm1.69,.3l.55-1.28c.75,.33,1.49,.68,2.22,1.05l-.62,1.25c-.71-.35-1.42-.69-2.15-1.01Zm-.33-.15c-.8-.35-1.6-.68-2.42-.99l.49-1.31c.84,.32,1.67,.66,2.48,1.02l-.55,1.29Zm-2.76-1.12c-.92-.34-1.85-.66-2.79-.96l.41-1.34c.97,.3,1.93,.63,2.87,.99l-.49,1.31Zm-3.14-1.07c-1.06-.32-2.13-.61-3.21-.87l.32-1.37c1.11,.27,2.22,.57,3.3,.9l-.41,1.34Zm-1.87-.14l-.41,1.4c-.91-.25-1.83-.47-2.75-.66l.33-1.41c.96,.2,1.9,.43,2.84,.68Zm-1.7-.81c-.94-.22-1.88-.41-2.83-.58l.23-1.39c.98,.17,1.95,.37,2.92,.6l-.32,1.37Zm-1.5,.06l-.32,1.41c-.91-.19-1.82-.35-2.74-.49l.24-1.42c.95,.14,1.89,.31,2.82,.5Zm-1.69-.69c-.88-.15-1.76-.28-2.65-.38l.16-1.4c.92,.11,1.82,.24,2.72,.39l-.23,1.39Zm-1.49,.15l-.24,1.41c-.89-.13-1.78-.24-2.67-.32l.15-1.42c.93,.08,1.84,.19,2.76,.32Zm-1.51-.57c-.89-.1-1.78-.18-2.68-.23l.08-1.41c.93,.06,1.85,.14,2.76,.24l-.16,1.4Zm-1.61,.22l-.15,1.42c-.82-.07-1.63-.12-2.45-.15l.08-1.42c.85,.03,1.69,.08,2.53,.15Zm-1.44-.47c-.91-.05-1.83-.08-2.76-.08v-1.41c.95,0,1.89,.03,2.83,.08l-.08,1.41Zm-1.46,.31l-.08,1.42c-.47-.01-.94-.02-1.41-.02s-.95,0-1.43,.02l-.08-1.42c.5-.01,1-.02,1.5-.02s.99,0,1.48,.02Zm-1.67-.39c-.93,0-1.86,.03-2.78,.08l-.08-1.41c.94-.05,1.89-.08,2.85-.08v1.41Zm-1.68,.4l.08,1.42c-.82,.03-1.64,.08-2.46,.14l-.15-1.41c.84-.07,1.68-.12,2.53-.15Zm-4.14-.07l-.16-1.4c.91-.1,1.83-.19,2.76-.24l.08,1.41c-.9,.05-1.79,.14-2.68,.23Zm1.24,.25l.15,1.41c-.9,.08-1.79,.18-2.68,.31l-.23-1.4c.91-.13,1.83-.24,2.76-.32Zm-4.25,.17l-.23-1.39c.9-.15,1.81-.29,2.72-.39l.16,1.4c-.89,.1-1.77,.23-2.65,.38Zm1.13,.19l.23,1.4c-.92,.14-1.84,.3-2.74,.48l-.32-1.38c.93-.19,1.87-.36,2.82-.5Zm-4.33,.44l-.32-1.37c.96-.22,1.93-.42,2.92-.6l.23,1.39c-.95,.17-1.9,.36-2.83,.58Zm1.14,.13l.32,1.38c-.93,.19-1.85,.42-2.76,.66l-.4-1.35c.94-.25,1.88-.48,2.84-.68Zm-8.92,2.71c.8-.32,1.61-.62,2.43-.91l.49,1.32c-.79,.27-1.58,.56-2.36,.88l-.55-1.29Zm.22,1.43c-1.21,.5-2.4,1.03-3.56,1.62l-.62-1.25c1.19-.59,2.4-1.15,3.64-1.65l.55,1.29Zm2.55-2.46c.97-.33,1.96-.63,2.96-.91l.4,1.35c-.97,.27-1.93,.56-2.87,.88l-.49-1.32Zm1.44-.86l-.41-1.34c1.09-.33,2.19-.63,3.3-.9l.32,1.37c-1.08,.26-2.15,.55-3.21,.87Zm-.35,.11c-.94,.29-1.87,.61-2.79,.96l-.49-1.31c.95-.35,1.9-.68,2.87-.99l.41,1.34Zm-3.13,1.09c-.82,.31-1.62,.64-2.42,.99l-.55-1.29c.82-.36,1.65-.7,2.48-1.02l.49,1.31Zm-2.75,1.14c-.72,.32-1.42,.65-2.12,1l-.62-1.25c.72-.36,1.45-.71,2.19-1.04l.55,1.28Zm-1.38,3.3c0-.15,.09-.27,.21-.33h0c6.98-3.5,14.85-5.48,23.17-5.48s16.2,1.98,23.18,5.48h0c.12,.06,.21,.19,.21,.34,0,.21-.17,.38-.38,.38-.06,0-.11-.02-.15-.04-6.88-3.45-14.64-5.39-22.86-5.39s-15.98,1.94-22.86,5.38c-.01,0-.02,0-.03,.02-.04,.01-.08,.03-.12,.03-.21,0-.38-.17-.38-.38Zm48.33-3.88h0c-7.51-3.76-15.98-5.88-24.95-5.88s-17.43,2.12-24.94,5.88h0c-.05,.02-.11,.04-.17,.04-.21,0-.38-.17-.38-.39,0-.15,.08-.27,.2-.33,1.86-.93,3.77-1.76,5.72-2.48h0s.01,0,.03-.01c6.17-2.27,12.76-3.46,19.54-3.46,8.93,0,17.54,2.06,25.3,5.95,.12,.07,.2,.19,.2,.33,0,.21-.17,.39-.38,.39-.06,0-.12-.02-.17-.04Zm-57.64-13.89l.08-.04,.46-.23,.94-.43,.65,1.31c-.53,.26-1.08,.53-1.46,.73l-.68-1.33h0Zm3.39,.41l.61,1.39c-.55,.25-2.25,1.1-2.45,1.21l-.69-1.35c.67-.33,1.82-.92,2.54-1.26Zm2.24-3.01l.56,1.39c-.55,.23-1.1,.46-1.65,.7l-.63-1.3,1.72-.79Zm.7,1.73l.56,1.4c-.85,.35-1.7,.72-2.54,1.1l-.6-1.38c.85-.39,1.71-.76,2.58-1.11Zm5.24,3.26c.59-.2,.99-.33,1.59-.52v.09s-.25,1.81-.25,1.81c-.26,.08-.51,.18-.76,.26v-.02s-.56-1.55-.56-1.55l-.02-.07Zm1.79-5.71c.99-.29,1.99-.55,3-.79l.35,1.46c-1.33,.32-2.64,.68-3.93,1.07l-.44-1.43c.22-.07,.43-.14,.64-.2h0s.38-.11,.38-.11h0Zm12.97,2.49c.62-.06,1.04-.09,1.67-.14l-.03,.08-.65,1.7c-.27,.02-.54,.05-.8,.07h0s-.18-1.65-.18-1.65v-.07Zm3.05-5.14c1.03-.05,2.06-.08,3.1-.08v1.5c-1.36,0-2.72,.05-4.07,.14l-.1-1.49c.22-.01,.45-.03,.67-.05h0s.4-.02,.4-.02h0Zm32.09,4.15l-.63,1.3c-.55-.24-1.09-.47-1.65-.7l.56-1.39,1.72,.79Zm.16,2.06l-.6,1.38c-.84-.38-1.68-.75-2.54-1.1l.56-1.4c.87,.36,1.73,.73,2.58,1.11Zm.41,2.27l-.61,1.34c-.77-.37-1.55-.73-2.34-1.07l.61-1.33c.79,.34,1.57,.7,2.34,1.07Zm-2.7-1.22l-.61,1.33c-.29-.12-.64-.27-.93-.39l.04-.11,.5-1.25c.33,.14,.66,.28,.99,.43Zm-12.26,1.77c-.81-.19-1.63,.32-1.82,1.13l-.89,3.86v.03c-.24-.05-.47-.09-.71-.14l.91-3.92c.26-1.13,1.35-1.85,2.47-1.69,0,0,.15,.03,.2,.04,.06,.01,.19,.05,.19,.05,1.08,.36,1.74,1.48,1.48,2.61l-.91,3.94c-.23-.06-.46-.13-.69-.19v-.03s.91-3.88,.91-3.88c.19-.81-.32-1.63-1.13-1.82Zm-11.8,1.78v-1.73c1.11,.05,2.22,.13,3.32,.24l.7,1.81c-1.33-.15-2.67-.26-4.02-.32Zm4.02,.69l-.15,1.4-.04,.31c-.58-.07-1.17-.12-1.76-.17l.13-1.72c.61,.05,1.21,.11,1.82,.18Zm-2.21-.21l-.13,1.72c-.55-.04-1.11-.07-1.67-.1v-1.73c.6,.03,1.2,.07,1.8,.11Zm-5.91,1.58h0c-.24,0-.48,.02-.71,.03v-3.98c-.01-1.16,.88-2.11,2.01-2.21,0,0,.13,0,.21,0,.07,0,.19,0,.19,0,1.14,.1,2.03,1.04,2.04,2.2v4c-.23,0-.46-.02-.7-.03v-3.97c-.01-.83-.69-1.51-1.53-1.51-.83,0-1.51,.68-1.51,1.52v3.96Zm-14.02-1.96l.92,3.84c-.23,.06-.46,.12-.69,.19l-.93-3.87c-.27-1.13,.38-2.26,1.46-2.62,0,0,.14-.04,.19-.05,.05-.01,.2-.04,.2-.04,1.13-.17,2.22,.54,2.49,1.67l.93,3.88c-.23,.05-.47,.09-.7,.14l-.93-3.85c-.19-.81-1.01-1.31-1.82-1.12-.81,.19-1.31,1.01-1.12,1.82Zm-11.12-3.65c.33-.14,.66-.29,.99-.43l.5,1.25,.04,.11c-.29,.12-.64,.27-.93,.39l-.61-1.33Zm.24,1.49c-.79,.34-1.57,.7-2.34,1.07l-.61-1.34c.77-.37,1.55-.72,2.34-1.07l.61,1.33Zm.31,3.46l-.7-1.57c.52-.23,1.03-.46,1.56-.69l.04,.04,1.36,1.24c-.76,.31-1.51,.63-2.25,.97Zm2.56-.7l1.43,1.3c-.6,.23-1.19,.47-1.77,.72l-.68-1.6c.34-.14,.68-.28,1.02-.42Zm-1.39,.58l.67,1.6c-.28,.12-.55,.23-.83,.36-.37-.61-.94-1.01-1.59-1.17,.58-.27,1.16-.53,1.74-.79Zm3.12,1l1.43,1.3c-1.27,.47-2.51,.98-3.74,1.53l-.78-1.55c1.01-.46,2.04-.88,3.08-1.28Zm.41-.16c.42-.16,.84-.31,1.27-.46l-.19,1.45-1.08-.99Zm-1.02,2.66l.68,1.57c-.48,.2-.97,.41-1.44,.62l-.77-1.53c.51-.23,1.02-.45,1.54-.66Zm.37-.15c.59-.24,1.19-.47,1.79-.69l.58,1.61c-.57,.21-1.13,.43-1.7,.66l-.68-1.58Zm6.78-10.03c1.59-.38,3.19-.69,4.78-.94l-.32,.89c-1.42,.24-2.85,.52-4.27,.86-1.44,.34-2.85,.74-4.25,1.17l-.69-.65c1.55-.49,3.13-.94,4.74-1.32Zm-2.02,.14l-.39-1.41c.66-.18,1.32-.35,1.99-.51,.67-.16,1.34-.3,2.01-.43l.28,1.44c-.65,.13-1.3,.27-1.94,.42-.65,.15-1.3,.32-1.94,.5Zm5.1,2.19l-.33-1.69c.56-.11,1.12-.21,1.69-.3l.05,.07,1.03,1.5c-.82,.13-1.63,.27-2.43,.43Zm2.67-.09l1.09,1.59c-.54,.07-1.07,.15-1.6,.24l-.3-1.71c.27-.04,.53-.08,.8-.12Zm-1.19,.19l.3,1.71c-.39,.07-.78,.13-1.17,.21-.22-.67-.69-1.2-1.28-1.5,.71-.15,1.43-.29,2.15-.41Zm-2.82,.18c-.3-.06-.61-.07-.93-.02l-.35-1.46c.63-.15,1.27-.29,1.9-.41l.33,1.69c-.32,.06-.63,.14-.95,.21Zm-3.07,2.93c-.37,.11-.74,.22-1.11,.34l-.52-1.66c.7-.21,1.4-.41,2.1-.6-.4,.54-.58,1.22-.47,1.93Zm-.02-2.18l-.47-1.66c.63-.17,1.26-.34,1.89-.49l.35,1.46c-.3,.1-.57,.25-.8,.43-.32,.08-.65,.16-.97,.25Zm-2.49-.97v-.1c.55-.17,1.09-.33,1.64-.48l.47,1.66c-.79,.22-1.57,.46-2.34,.71l.23-1.79Zm.5,1.94l.52,1.66c-.52,.16-1.04,.33-1.55,.51l.25-1.92c.26-.09,.52-.17,.78-.25Zm2.08,1.58l.4,1.69c-1.29,.37-2.57,.78-3.82,1.23l.25-1.92c1.04-.36,2.1-.7,3.17-1Zm-3.31,3.28c.56-.2,1.11-.39,1.68-.58l.5,1.64c-.54,.18-1.08,.36-1.62,.56l-.55-1.62Zm2.05-.7c.58-.19,1.16-.36,1.75-.53l.4,1.67c-.55,.16-1.11,.33-1.65,.5l-.5-1.64Zm6.8-1.74c.59-.11,1.18-.22,1.78-.31l.27,1.7c-.55,.09-1.1,.18-1.65,.29l-.4-1.68Zm-.09-.36l-.4-1.68c1.09-.21,2.18-.38,3.29-.53l1.1,1.6c-1.34,.16-2.67,.37-3.98,.62Zm4.07-.26l.2,1.62v.09c-.58,.07-1.16,.15-1.74,.24l-.27-1.7c.6-.09,1.2-.17,1.81-.25Zm.13-.75l-.87-1.27c.47-.06,.95-.12,1.42-.17l-.55,1.44Zm.3,.33l.69-1.81c1.1-.11,2.2-.19,3.31-.24v1.73c-1.34,.06-2.67,.16-4,.31Zm1.89,1.92c-.57,.05-1.14,.1-1.71,.17v-.1s-.2-1.62-.2-1.62c.6-.07,1.2-.13,1.8-.18l.11,1.72Zm4.71-9.42c1.64,0,3.26,.07,4.87,.19l-.51,.79c-1.44-.1-2.89-.15-4.35-.15s-2.95,.06-4.4,.16l-.52-.79c1.63-.12,3.27-.19,4.92-.19Zm-5.19-.16l-.13-1.46c.95-.07,1.91-.13,2.87-.17l.06,1.47c-.92,.03-1.88,.09-2.79,.16Zm3.13-1.64c.68-.02,1.37-.04,2.06-.04s1.37,.02,2.05,.04l-.06,1.47c-.66-.02-1.32-.04-1.99-.04s-1.33,.01-2,.04l-.06-1.47Zm4.44,1.48l.06-1.47c.94,.03,1.89,.09,2.82,.16l-.11,1.37-.06,.09c-.9-.07-1.8-.12-2.71-.15Zm.07,3.29l.07-1.72c.57,.02,1.14,.06,1.71,.09l.03,.07,.65,1.68c-.81-.06-1.63-.1-2.46-.13Zm2.6,.51l.71,1.84c-.54-.05-1.07-.1-1.61-.13l.11-1.76c.27,.02,.53,.04,.8,.05Zm-2.93-2.24l-.07,1.72c-.32,0-.65-.01-.97-.02-.28-.13-.58-.21-.9-.24v-1.51c.65,0,1.29,.02,1.94,.04Zm-2.34,1.47c-.31,.03-.61,.11-.88,.24-.33,0-.67,0-1,.02l-.08-1.72c.65-.02,1.3-.04,1.96-.04v1.51Zm-4.08-1.26l.04-.09c.56-.04,1.12-.07,1.69-.1l.08,1.72c-.82,.03-1.63,.08-2.44,.15l.64-1.68Zm.04,2l.12,1.73c-.54,.04-1.08,.08-1.62,.13l.69-1.8c.27-.02,.55-.05,.82-.06Zm1.66,4.12v1.73c-.57,.03-1.15,.06-1.72,.1l-.11-1.73c.61-.05,1.21-.08,1.82-.11Zm-1.15-2.41l-.12-1.73c.72-.04,1.45-.08,2.18-.1-.51,.43-.85,1.06-.9,1.76-.39,.02-.77,.04-1.16,.07Zm5.41-1.83c.74,.02,1.47,.05,2.2,.08l-.11,1.75c-.39-.02-.79-.05-1.18-.07-.06-.71-.39-1.33-.91-1.77Zm4.69,2.42c.46,.05,.93,.1,1.39,.16l-.84,1.25-.55-1.41Zm.51,3.51l.16-1.33c.6,.07,1.19,.16,1.79,.25l-.29,1.69c-.56-.08-1.13-.16-1.7-.23l.04-.38Zm.24-1.69l1.08-1.6c1.11,.15,2.2,.32,3.29,.53l-.39,1.69c-1.31-.25-2.64-.46-3.98-.62Zm8.16-5.82c1.59,.37,3.16,.81,4.7,1.29l-.68,.65c-1.38-.42-2.78-.81-4.2-1.14-1.44-.34-2.88-.62-4.32-.85l-.33-.89c1.61,.25,3.22,.56,4.84,.94Zm-1.87-.78l.28-1.44c.67,.14,1.34,.28,2.01,.43,.67,.16,1.33,.33,1.99,.51l-.4,1.41c-.64-.17-1.28-.34-1.93-.49-.65-.15-1.3-.29-1.95-.42Zm3.2,6.38c.13-.75-.07-1.49-.52-2.05,.73,.19,1.45,.4,2.17,.63l-.53,1.76,.38,.11,.53-1.75c.25,.08,.5,.17,.76,.25l.28,2.02c-1.01-.35-2.04-.67-3.07-.97Zm3.13,1.38l.26,1.89v.03c-1.27-.46-2.56-.87-3.86-1.24l.39-1.69c1.08,.31,2.15,.65,3.2,1.01Zm-4.22-3.95c-.21-.14-.43-.26-.68-.34l.34-1.47c.63,.15,1.26,.31,1.89,.48l-.45,1.61c-.36-.1-.73-.19-1.1-.28Zm1.48,.39l.45-1.62c.55,.15,1.1,.32,1.64,.48v.08s.26,1.77,.26,1.77c-.78-.26-1.56-.49-2.35-.72Zm-4.43-1.06l.31-1.64c.64,.13,1.28,.26,1.91,.41l-.34,1.47c-.25-.04-.5-.03-.74,0-.38-.08-.76-.16-1.14-.24Zm.39,.46c-.65,.3-1.16,.87-1.38,1.6-.38-.07-.76-.14-1.14-.2l.3-1.8c.75,.12,1.48,.26,2.22,.41Zm-2.14-2.47c.56,.09,1.11,.19,1.67,.29l-.31,1.64c-.79-.15-1.59-.28-2.39-.4l1.04-1.54Zm-.47,1.99l-.3,1.8c-.54-.09-1.08-.17-1.63-.25l1.13-1.67c.27,.04,.53,.07,.8,.12Zm-1.14,4.16c.6,.1,1.2,.2,1.8,.32l-.39,1.68c-.56-.11-1.13-.2-1.7-.29l.29-1.7Zm6.85,1.52c.58,.17,1.15,.34,1.72,.52l-.52,1.63c-.53-.17-1.06-.33-1.6-.48l.39-1.67Zm2.1,.64c.57,.19,1.14,.38,1.71,.59l-.55,1.62c-.55-.2-1.11-.39-1.67-.57l.52-1.63Zm2.1,.73c.61,.22,1.21,.46,1.81,.7l-.68,1.58c-.56-.23-1.13-.45-1.7-.66l.57-1.61Zm-.1-2.26c.42,.15,.84,.3,1.25,.46l-1.06,.96-.2-1.42Zm2.28,3.12c.52,.21,1.03,.43,1.53,.66l-.77,1.53c-.48-.21-.96-.42-1.44-.62l.68-1.58Zm-2.04-1.2l1.43-1.3c1.04,.4,2.07,.82,3.09,1.28l-.78,1.55c-1.22-.55-2.47-1.06-3.74-1.53Zm1.73-1.58l1.46-1.34c.33,.14,.67,.28,1,.43l-.69,1.63c-.59-.25-1.18-.49-1.77-.72Zm2.14,.88l.68-1.62c.57,.26,1.15,.53,1.72,.81-.64,.16-1.21,.57-1.57,1.17-.27-.12-.55-.24-.83-.36Zm-.38-2.49l1.33-1.21,.04-.04c.52,.22,1.04,.45,1.56,.69l-.7,1.57c-.74-.35-1.48-.68-2.22-1Zm.97-1.42l-1.37,1.25c-.31-.13-.62-.26-.93-.38l.58-1.55c.57,.22,1.15,.45,1.71,.68Zm-1.67,1.53l-1.47,1.35c-.53-.2-1.07-.4-1.62-.59l-.28-2.03c1.13,.39,2.25,.81,3.37,1.27Zm-3.43-1.69l-.26-1.86c.61,.19,1,.32,1.6,.52l-.56,1.62c-.26-.09-.52-.19-.78-.27Zm.51-3.26c-.86-.27-1.73-.53-2.61-.77l.4-1.41c.91,.25,1.82,.51,2.71,.8l-.42,1.31-.08,.08Zm0-1.91l.43-1.44c.21,.06,.42,.13,.63,.19l-.46,1.43c-.2-.06-.4-.12-.6-.18Zm-.47-2.1l.41-1.41c.57,.16,1.13,.33,1.69,.5l-.45,1.4c-.55-.17-1.1-.33-1.65-.49Zm.52,.54l-.43,1.44c-1.29-.39-2.6-.75-3.93-1.07l.34-1.46c1.36,.32,2.7,.7,4.03,1.1Zm-4.13-1.51c-.4-.09-.8-.18-1.2-.26l.29-1.44h0c.41,.09,.83,.18,1.24,.28,.42,.1,.82,.21,1.23,.32l-.37,1.42c-.4-.1-.79-.21-1.2-.31Zm-.28,.32l-.34,1.46c-1.33-.31-2.66-.57-3.99-.8l.24-1.47c.22,.04,.44,.07,.67,.11h0s.39,.07,.39,.07h0c1.01,.18,2.02,.39,3.04,.62Zm-5.13-1.36l.22-1.48c.6,.1,1.21,.2,1.81,.31l-.26,1.46c-.59-.11-1.18-.2-1.77-.29Zm.65,.48l-.24,1.48c-.23-.04-.45-.07-.68-.11l.22-1.48c.23,.04,.47,.08,.7,.12Zm1.85,2.23l-.28,1.44c-.91-.18-1.82-.33-2.72-.47l-.03-.08,.2-1.38c.94,.15,1.89,.31,2.83,.49Zm-4.56,2.32c.62,.08,1.04,.15,1.65,.25l-1.04,1.55c-.27-.04-.55-.07-.82-.1l.2-1.62v-.07Zm.39,2.14l-1.13,1.67c-.59-.08-1.18-.15-1.77-.21l-.71-1.85c1.22,.09,2.43,.22,3.61,.38Zm-3.76-.76l-.68-1.76c.63,.04,1.05,.08,1.67,.14l-.17,1.68c-.27-.02-.55-.04-.82-.06Zm-.68-5.17l.09-1.5c.22,.01,.44,.03,.65,.04l-.12,1.5c-.21-.01-.42-.02-.63-.04Zm-.94-1.93l.07-1.47c.59,.03,1.18,.06,1.76,.1l-.12,1.47c-.57-.04-1.14-.07-1.72-.1Zm.63,.41l-.09,1.5c-1.35-.08-2.71-.14-4.07-.14v-1.5c1.4,0,2.79,.06,4.17,.15Zm-3.13-.5c-.41,0-.82-.03-1.24-.03s-.82,0-1.22,.02l-.05-1.47h0c.42,0,.85-.01,1.27-.01s.85,.02,1.27,.03l-.04,1.47Zm-6.74,.2l-.12-1.49c.61-.04,1.22-.08,1.83-.12l.08,1.48c-.6,.03-1.19,.07-1.79,.12Zm.74,.32l.1,1.49c-.23,.02-.46,.03-.69,.05l-.13-1.5c.24-.02,.47-.03,.71-.05Zm-.75,7.08l-.69,1.81c-.6,.06-1.2,.13-1.8,.21l-1.1-1.6c1.19-.17,2.38-.31,3.59-.42Zm-3.82,.08l-1.08-1.58c.63-.1,1.04-.16,1.66-.25l.23,1.71c-.27,.04-.54,.07-.8,.11Zm-1.02-3.18c-.89,.14-1.78,.3-2.67,.48l-.28-1.44c.93-.19,1.85-.35,2.78-.5l.21,1.36-.04,.1Zm-.85-1.72l-.25-1.48c.22-.04,.43-.08,.65-.11l.23,1.49c-.21,.04-.41,.07-.62,.11Zm-1.36-1.67l-.27-1.44c.58-.11,1.16-.21,1.74-.31l.22,1.45c-.56,.09-1.13,.19-1.69,.3Zm.71,.25l.25,1.48c-1.33,.23-2.66,.49-4,.8l-.35-1.46c1.37-.32,2.73-.59,4.09-.82Zm-4.37,.5c-.4,.09-.79,.2-1.19,.3l-.39-1.42h0c.41-.11,.82-.21,1.23-.31,.41-.1,.83-.18,1.24-.27l.3,1.44c-.4,.09-.81,.17-1.21,.26Zm-5.31,1.49l-.46-1.42c.58-.18,1.17-.36,1.76-.54l.42,1.42c-.58,.17-1.15,.35-1.71,.53Zm.8,.14l.44,1.43c-.22,.07-.44,.14-.66,.21l-.47-1.43c.23-.07,.45-.14,.68-.21Zm2.65,1.16l.39,1.41c-.89,.25-1.77,.51-2.65,.79l-.06-.06-.43-1.32c.91-.29,1.82-.57,2.75-.82Zm-1.75,5.9l-.25,1.92c-.55,.19-1.09,.39-1.63,.59l-1.43-1.31c1.09-.43,2.19-.84,3.31-1.21Zm-3.61,.93l-1.41-1.28c.57-.24,1.14-.46,1.71-.68l.61,1.61c-.3,.12-.61,.23-.91,.36Zm-6.72-2.21c.15-.07,.3-.14,.45-.21l.61,1.34c-.12,.06-1,.49-1.21,.6l-.67-1.3c.15-.07,.76-.39,.83-.42Zm.87,1.62c1.33-.66,2.73-1.29,4.11-1.86l-.14,.88v.08c-1.3,.54-2.57,1.12-3.82,1.75l-.84-.51c.25-.12,.63-.3,.69-.34Zm2.12,.32l.71,1.57c-.31,.14-.61,.29-.91,.43-.29,0-.58,.06-.86,.17-.01,0-.05,.02-.07,.03l-.67-1.34c.59-.3,1.19-.58,1.8-.86Zm1.86,3.59l1.78,3.55c-.22,.1-.44,.19-.65,.29l-1.77-3.53c-.35-.69-1.15-1-1.86-.74l-.32-.64c1.07-.43,2.3,.01,2.82,1.06Zm49.5,3.85c-.22-.1-.43-.2-.65-.3l1.78-3.56c.52-1.05,1.76-1.49,2.82-1.06l-.32,.64c-.71-.26-1.52,.05-1.86,.74l-1.77,3.53Zm3.14-5.44h0c-.29-.15-.57-.28-.86-.42l.71-1.58c.6,.28,1.21,.56,1.8,.86l-.67,1.34s-.05-.02-.07-.03c-.3-.11-.61-.17-.91-.17Zm-1.99-3.21v-.08s-.15-.88-.15-.88c1.38,.57,2.78,1.2,4.11,1.86,.06,.03,.44,.22,.69,.34l-.84,.51c-1.25-.62-2.52-1.2-3.81-1.75Zm3.78,.4l.61-1.34c.15,.07,.3,.14,.45,.21,.07,.03,.68,.35,.83,.42l-.67,1.3c-.21-.11-1.09-.54-1.21-.6Zm-.41-2.23l.61-1.39c.72,.34,1.87,.92,2.54,1.26l-.69,1.35c-.21-.11-1.9-.96-2.45-1.21Zm1.86-1.19l.65-1.31,.94,.43,.46,.23,.08,.04h0s-.68,1.33-.68,1.33c-.39-.19-.93-.46-1.46-.73Z"/>
        <rect class="cls-9" x="331.62" y="37.86" width="59.51" height="23.59"/>
        <polygon class="cls-7" points="391.14 61.45 331.7 61.45 331.69 81.15 332.12 83.81 390.81 83.84 391.14 81.13 391.14 61.45"/>
        <path class="cls-4" d="M361.42,108.64c14.7,0,26.96-10.77,29.3-24.83h-58.6c.88,5.27,3.15,10.07,6.41,14.02,1.74,2.1,3.76,3.96,6,5.52,4.8,3.33,10.62,5.29,16.89,5.29Z"/>
        <path class="cls-6" d="M361.38,20.23h0c-1.23,0-2.23,1-2.23,2.23v3.99l1.95-.08,1.39,.06,1.11,.04v-4.01c0-1.23-1-2.23-2.23-2.23Z"/>
        <path class="cls-6" d="M334.69,32.82h0c.32-.17,.58-.32,.77-.43l-.66,.36-.12,.07Z"/>
        <line class="cls-8" x1="327.4" y1="19.59" x2="327.39" y2="19.59"/>
        <path class="cls-6" d="M386.51,33.2c.21,0,.38-.17,.38-.38,0-.15-.09-.27-.21-.33l-.33,.67c.05,.02,.1,.04,.16,.04Z"/>
        <path class="cls-6" d="M388.05,20.59c-.33-.14-.66-.29-.99-.43l-.5,1.25-.04,.11c.29,.12,.64,.27,.93,.39l.61-1.33Z"/>
        <path class="cls-6" d="M390.54,17.67v-.02s0,0,0,0l-.63,1.3c.25,.11,.5,.22,.75,.33,.24,.11,.58,.27,.93,.45l.65-1.3h0s-.05,.11-.05,.11l-1.64-.86Z"/>
        <path class="cls-6" d="M386.58,21.95l.14,.88v.08c1.3,.54,2.57,1.12,3.82,1.75l.84-.51c-.25-.12-.63-.3-.69-.34-1.33-.66-2.73-1.29-4.11-1.86Z"/>
        <path class="cls-6" d="M332.06,83.15v-.12s-.24,0-.24,0c.03,.18,.06,.36,.09,.54h57.99c.03-.18,.06-.36,.09-.54h-56.29l-.05,.3-1.6-.18Z"/>
        <path class="cls-6" d="M360.91,108.32c14.42,0,26.46-10.48,28.91-24.22h-57.82c2.45,13.74,14.49,24.22,28.91,24.22Z"/>
        <path class="cls-6" d="M331.53,79.02c0,1.18,.08,2.34,.22,3.48h.37l.02-.17,1.68,.04-.02,.13h56.26c.14-1.14,.22-2.3,.22-3.48v-17.3s-58.75,0-58.75,0v17.31Z"/>
        <rect class="cls-6" x="331.53" y="38.26" width="58.75" height="22.93"/>
        <path class="cls-6" d="M381.78,98.09s-.02,0-.03,0c-.01,0-.02,0-.03,0h0c-2.15,.02-8.35,1.03-10.27,1.03s-7.59-1.02-10.32-1.03h0s-.02,0-.02,0-.02,0-.02,0h0c-2.73,.01-8.37,1.03-10.32,1.03s-8.17-1.02-10.29-1.03h0s-.01,0-.02,0c0,0-.01,0-.02,0h0c-.48,0-1.07,.04-1.7,.09,1.42,1.63,3.01,3.11,4.75,4.39,2.65,.3,5.96,.77,7.28,.77,1.94,0,7.59-1.02,10.32-1.03h0s.02,0,.02,0,.02,0,.02,0h0c2.73,.01,8.37,1.03,10.32,1.03,1.23,0,4.23-.42,6.79-.72,1.78-1.31,3.41-2.81,4.85-4.48-.48-.04-.93-.06-1.31-.06h0Z"/>
        <path class="cls-6" d="M335.13,92.98l5.32-5.32,5.16,5.16,5.16-5.16,5.16,5.16,5.16-5.16,5.16,5.16,5.16-5.16,5.16,5.16,5.16-5.16,5.09,5.09c1.42-2.66,2.45-5.57,3-8.64h-57.82c.56,3.16,1.64,6.15,3.13,8.88Z"/>
        <path class="cls-6" d="M331.53,79.02c0,1.18,.08,2.34,.22,3.48l.07,.53c.03,.18,.06,.36,.09,.54h57.99c.03-.18,.06-.36,.09-.54l.07-.53c.14-1.14,.22-2.3,.22-3.48v-17.3s-58.75,0-58.75,0v17.31Z"/>
        <rect class="cls-6" x="331.53" y="38.26" width="58.75" height="22.93"/>
        <path class="cls-6" d="M336.59,95.35c-.14-.21-.28-.42-.41-.63,.14,.21,.27,.42,.41,.63Z"/>
        <path class="cls-6" d="M337.35,96.42c-.1-.13-.2-.27-.3-.4,.1,.14,.2,.27,.3,.4Z"/>
        <path class="cls-6" d="M356.99,104.82l-11.88-1.14c4.57,2.93,9.99,4.64,15.8,4.64s11.27-1.72,15.84-4.67l-15.26,.54-4.51,.63Z"/>
        <path class="cls-6" d="M335.85,94.2c-.25-.4-.49-.81-.71-1.23,.23,.42,.47,.82,.71,1.23Z"/>
        <path class="cls-6" d="M385.43,95.06c-.06,.1-.12,.19-.19,.29,.06-.09,.12-.19,.19-.29Z"/>
        <path class="cls-6" d="M386.82,92.74c-.24,.46-.5,.9-.77,1.34,.27-.44,.52-.89,.77-1.34Z"/>
        <path class="cls-6" d="M384.4,96.52s0,0-.01,.01c0,0,0,0,.01-.01Z"/>
        <rect class="cls-6" x="331.53" y="38.26" width="58.75" height="22.93"/>
        <path class="cls-6" d="M335.13,92.98l5.32-5.32,5.16,5.16,5.16-5.16,5.16,5.16,5.16-5.16,5.16,5.16,5.16-5.16,5.16,5.16,5.16-5.16,5.09,5.09c1.42-2.66,2.45-5.57,3-8.64h-57.82c.56,3.16,1.64,6.15,3.13,8.88Z"/>
        <path class="cls-6" d="M331.53,79.02c0,1.18,.08,2.34,.22,3.48l.07,.53c.03,.18,.06,.36,.09,.54h57.99c.03-.18,.06-.36,.09-.54l.07-.53c.14-1.14,.22-2.3,.22-3.48v-17.3s-58.75,0-58.75,0v17.31Z"/>
        <path class="cls-3" d="M377.1,92.81l-5.16-5.16-5.16,5.16-5.16-5.16-5.16,5.16-5.16-5.16-5.16,5.16-5.16-5.16-5.32,5.32c.23,.42,.47,.82,.71,1.23,.11,.18,.22,.35,.33,.52,.13,.21,.27,.42,.41,.63,.15,.22,.3,.44,.46,.66,.1,.14,.2,.27,.3,.4,.45,.6,.91,1.19,1.4,1.76,.63-.05,1.21-.09,1.7-.09h0s.01,0,.02,0c0,0,.01,0,.02,0h0c2.12,.01,8.37,1.03,10.29,1.03s7.59-1.02,10.32-1.03h0s.02,0,.02,0,.02,0,.02,0h0c2.73,.01,8.37,1.03,10.32,1.03s8.12-1.01,10.27-1.03h0s.02,0,.03,0c0,0,.02,0,.03,0h0c.38,0,.83,.03,1.31,.06,.45-.52,.87-1.06,1.29-1.61,0,0,0,0,.01-.01,.29-.39,.57-.78,.85-1.18,.06-.09,.12-.19,.19-.29,.21-.32,.42-.64,.62-.97,.27-.44,.52-.89,.77-1.34l-5.09-5.09-5.16,5.16Z"/>
        <path class="cls-2" d="M382.31,98.09h0s-.02,0-.03,0c-.01,0-.02,0-.03,0h0c-2.15,.02-8.35,1.03-10.27,1.03s-7.59-1.02-10.32-1.03h0s-.02,0-.02,0-.02,0-.02,0h0c-2.73,.01-8.37,1.03-10.32,1.03s-8.17-1.02-10.29-1.03h0s-.01,0-.02,0c0,0-.01,0-.02,0h0c-.48,0-1.07,.04-1.7,.09,1.42,1.63,3.01,3.11,4.75,4.39,2.65,.3,5.96,.77,7.28,.77,1.94,0,7.59-1.02,10.32-1.03h0s.02,0,.02,0,.02,0,.02,0h0c2.73,.01,8.37,1.03,10.32,1.03,1.23,0,4.23-.42,6.79-.72,1.78-1.31,3.41-2.81,4.85-4.48-.48-.04-.93-.06-1.31-.06Z"/>
        <path class="cls-3" d="M361.67,102.32h0s-.02,0-.02,0-.02,0-.02,0h0c-2.73,.01-8.37,1.03-10.32,1.03-1.31,0-4.62-.47-7.28-.77,.27,.2,.54,.39,.81,.57,4.73,3.26,10.45,5.18,16.61,5.18,6.48,0,12.47-2.12,17.34-5.69-2.56,.3-5.56,.72-6.79,.72-1.94,0-7.59-1.02-10.32-1.03Z"/>
        <g>
          <path class="cls-2" d="M393.12,86.99c.7,0,.85-.34,.99-.72h.61v5.74h-.9v-4.38h-.7v-.64Z"/>
          <path class="cls-2" d="M397.11,92.07c-.91,0-1.41-.53-1.41-1.44v-.45c0-.55,.16-.97,.56-1.19v-.02c-.38-.2-.56-.58-.56-1.15v-.18c0-.92,.5-1.44,1.41-1.44s1.41,.53,1.41,1.44v.18c0,.57-.19,.94-.56,1.15v.02c.39,.22,.56,.64,.56,1.19v.45c0,.92-.5,1.44-1.41,1.44Zm-.51-4.08c0,.46,.21,.61,.51,.61s.51-.15,.51-.61v-.32c0-.52-.22-.66-.51-.66s-.51,.14-.51,.66v.32Zm.51,3.26c.29,0,.5-.14,.51-.65v-.53c0-.45-.19-.65-.51-.65s-.51,.2-.51,.65v.53c0,.51,.22,.65,.51,.65Z"/>
          <path class="cls-2" d="M399.42,86.99c.7,0,.85-.34,.99-.72h.61v5.74h-.9v-4.38h-.7v-.64Z"/>
          <path class="cls-2" d="M403.4,92.07c-.91,0-1.41-.53-1.41-1.44v-.45c0-.55,.16-.97,.56-1.19v-.02c-.38-.2-.56-.58-.56-1.15v-.18c0-.92,.5-1.44,1.41-1.44s1.41,.53,1.41,1.44v.18c0,.57-.19,.94-.56,1.15v.02c.39,.22,.56,.64,.56,1.19v.45c0,.92-.5,1.44-1.41,1.44Zm-.51-4.08c0,.46,.21,.61,.51,.61s.51-.15,.51-.61v-.32c0-.52-.22-.66-.51-.66s-.51,.14-.51,.66v.32Zm.51,3.26c.29,0,.5-.14,.51-.65v-.53c0-.45-.19-.65-.51-.65s-.51,.2-.51,.65v.53c0,.51,.22,.65,.51,.65Z"/>
        </g>
        <g>
          <path class="cls-2" d="M318.12,86.94c.7,0,.85-.34,.99-.72h.61v5.74h-.9v-4.38h-.7v-.64Z"/>
          <path class="cls-2" d="M323.26,86.22v.79l-1.33,4.96h-.9l1.32-4.92h-1.8v-.82h2.71Z"/>
          <path class="cls-2" d="M325.38,86.98c-.29,0-.47,.16-.47,.57v.62h-.85v-.56c0-.92,.46-1.44,1.35-1.44s1.35,.53,1.35,1.44c0,.76-.28,1.38-1.12,2.27-.53,.57-.68,.85-.68,1.15,0,.04,0,.08,0,.12h1.71v.82h-2.61v-.71c0-.64,.23-1.12,.9-1.83,.69-.73,.89-1.18,.89-1.8,0-.52-.18-.66-.47-.66Z"/>
          <path class="cls-2" d="M330.37,90.54c0,.97-.44,1.49-1.38,1.49-.89,0-1.35-.53-1.35-1.44v-.15h.85v.21c0,.41,.18,.57,.47,.57,.32,0,.5-.16,.5-.71v-1.04h-.02c-.16,.33-.42,.5-.82,.5-.66,0-1-.47-1-1.31v-1.05c0-.92,.48-1.44,1.37-1.44s1.37,.53,1.37,1.44v2.94Zm-.9-1.96v-1.03c0-.41-.18-.56-.47-.56s-.47,.15-.47,.56v1.03c0,.41,.18,.57,.47,.57s.47-.16,.47-.57Z"/>
        </g>
        <polygon class="cls-6" points="324.49 94.72 322.24 94.72 322.24 99.64 324.49 101.21 324.49 94.72"/>
        <rect class="cls-6" x="322.24" y="79.48" width="2.26" height="4.03"/>
        <g>
          <polygon class="cls-2" points="361.38 52.58 359.53 55.23 360.38 55.23 361.38 58.25 362.37 55.23 363.22 55.23 361.38 52.58"/>
          <polygon class="cls-2" points="364.93 56.5 363.16 59.13 366.15 58.07 366.67 58.74 367.64 55.65 364.41 55.82 364.93 56.5"/>
          <polygon class="cls-2" points="358.17 55.82 354.94 55.65 355.9 58.74 356.42 58.07 359.42 59.13 357.64 56.5 358.17 55.82"/>
          <rect class="cls-2" x="351.78" y="44.91" width="1.96" height="8.65"/>
          <polygon class="cls-2" points="358.57 49.08 364.36 49.08 364.36 53.56 366.31 53.56 366.31 44.91 364.36 44.91 364.36 47.38 362.15 47.38 362.15 43.58 363.96 43.58 363.96 42.21 362.15 42.21 362.15 40.37 360.78 40.37 360.78 42.21 358.96 42.21 358.96 43.58 360.78 43.58 360.78 47.38 358.57 47.38 358.57 44.91 356.61 44.91 356.61 53.56 358.57 53.56 358.57 49.08"/>
          <path class="cls-2" d="M372.76,48.42c-1.12-.42-1.6-.67-1.6-1.22,0-.45,.41-.83,1.26-.83s1.46,.24,1.81,.41l.44-1.58c-.51-.23-1.23-.44-2.21-.44-2.04,0-3.27,1.13-3.27,2.61,0,1.26,.94,2.05,2.37,2.55,1.04,.37,1.45,.68,1.45,1.22s-.48,.94-1.37,.94c-.83,0-1.64-.27-2.17-.54l-.4,1.62c.49,.27,1.46,.54,2.45,.54,2.37,0,3.49-1.25,3.49-2.7,0-1.22-.72-2.02-2.25-2.58Z"/>
        </g>
        <g>
          <polygon class="cls-2" points="385 76.14 384.17 73.59 383.35 76.14 380.67 76.14 382.83 77.71 382.01 80.26 384.17 78.69 386.34 80.26 385.52 77.71 387.68 76.14 385 76.14"/>
          <polygon class="cls-2" points="382.01 70.74 384.17 69.16 386.34 70.74 385.52 68.19 387.68 66.61 385 66.61 384.17 64.06 383.35 66.61 380.67 66.61 382.83 68.19 382.01 70.74"/>
          <polygon class="cls-2" points="339.43 76.14 338.6 73.59 337.78 76.14 335.1 76.14 337.26 77.71 336.44 80.26 338.6 78.69 340.77 80.26 339.95 77.71 342.11 76.14 339.43 76.14"/>
          <polygon class="cls-2" points="338.6 64.06 337.78 66.61 335.1 66.61 337.26 68.19 336.44 70.74 338.6 69.16 340.77 70.74 339.95 68.19 342.11 66.61 339.43 66.61 338.6 64.06"/>
          <path class="cls-2" d="M361.6,66.32c-.9-.65-2.25-.97-4.06-.97h-6.23v.71c.27,.07,.48,.15,.64,.24,.15,.09,.27,.21,.34,.35,.08,.14,.12,.33,.14,.56,.02,.23,.03,.51,.03,.85v9.24c0,.34-.01,.63-.03,.85-.02,.22-.07,.41-.14,.56-.08,.15-.19,.26-.34,.34-.15,.08-.36,.16-.63,.23v.71h5.77v-.71c-.32-.06-.56-.12-.71-.2-.15-.08-.27-.18-.35-.29-.08-.12-.14-.27-.18-.47-.04-.2-.05-.53-.05-1v-3.43c.44,.03,1.01,.04,1.7,.04,1.2,0,2.2-.18,3-.54,.8-.36,1.41-.89,1.83-1.59,.42-.7,.63-1.53,.63-2.48,0-1.34-.45-2.34-1.35-2.99Zm-2.26,5.06c-.2,.44-.52,.77-.94,.97-.42,.2-.99,.31-1.7,.31h-.92v-6.03c.27-.01,.66-.02,1.16-.02,.61,0,1.12,.09,1.51,.28,.39,.19,.69,.5,.89,.94,.2,.44,.31,1.03,.31,1.77s-.1,1.35-.31,1.79Z"/>
          <path class="cls-2" d="M365.64,66.06c.27,.07,.48,.15,.64,.24,.15,.09,.27,.2,.34,.35,.08,.15,.12,.33,.14,.55,.02,.22,.03,.5,.03,.85v9.25c0,.34-.01,.63-.03,.85-.02,.22-.07,.41-.14,.56-.08,.15-.19,.26-.34,.34-.15,.08-.36,.16-.63,.23v.71h5.63v-.71c-.21-.05-.38-.11-.53-.18-.14-.07-.26-.15-.34-.24-.08-.09-.14-.21-.19-.34-.04-.14-.07-.31-.09-.53-.01-.21-.02-.45-.02-.7v-9.24c0-.4,.01-.7,.04-.91,.03-.21,.08-.38,.15-.5,.07-.13,.18-.24,.32-.33,.14-.09,.36-.17,.65-.25v-.71h-5.63v.71Z"/>
          <circle class="cls-2" cx="359.92" cy="78.78" r="1.2"/>
          <circle class="cls-2" cx="374.11" cy="78.78" r="1.2"/>
        </g>
        <path d="M331.37,37.49v41.45c.04,15.65,14.69,29.99,30.06,29.99,16.58,0,30.02-13.42,30.06-29.99V37.49s-60.13,0-60.13,0Zm55.2,56.51c-.2,.33-.41,.65-.62,.97-.06,.09-.12,.19-.19,.29-.27,.4-.55,.79-.85,1.18,0,0,0,0-.01,.01-.41,.55-.84,1.09-1.29,1.61-1.44,1.67-3.07,3.17-4.85,4.48-.49,.36-.98,.69-1.49,1.02-4.58,2.95-10.01,4.67-15.84,4.67s-11.23-1.71-15.8-4.64c-.55-.35-1.09-.72-1.61-1.11-1.74-1.29-3.33-2.76-4.75-4.39-.49-.57-.95-1.16-1.4-1.76-.1-.13-.2-.27-.3-.4-.16-.22-.31-.44-.46-.66-.14-.21-.28-.42-.41-.63-.11-.17-.22-.35-.33-.52-.25-.4-.49-.81-.71-1.23-1.46-2.67-2.52-5.58-3.09-8.67h57.74c-.56,2.99-1.57,5.83-2.96,8.43-.24,.46-.5,.9-.77,1.34Zm4.24-15.07c0,1.18-.08,2.34-.22,3.48l-.07,.53c-.02,.18-.06,.35-.09,.53,0,0,0,.03,0,.03h-57.98c-.03-.18-.07-.38-.09-.56l-.07-.53c-.14-1.14-.22-2.3-.22-3.48v-17.1h58.75v17.1Zm0-17.83h-58.75v-22.93s58.75,0,58.75,0v22.93Z"/>
        <g>
          <g>
            <polygon class="cls-4" points="324.85 94.36 321.88 94.36 321.88 99.83 324.85 101.89 324.85 94.36"/>
            <g>
              <rect class="cls-4" x="321.88" y="79.09" width="2.97" height="4.78"/>
              <g>
                <g>
                  <path class="cls-4" d="M325.48,40.24l-.05-.08c-.04-.06-.08-.12-.13-.17-.13-.16-.22-.26,.1-.87,.39-.75-.02-1.25-.29-1.59-.22-.27-.27-.36-.23-.48,.19-.51,.06-1.27-.31-1.79-.29-.41-.69-.64-1.14-.64h-.04s-.04,0-.04,0c-.44,0-.85,.23-1.14,.63-.37,.52-.5,1.27-.32,1.79,.04,.12-.01,.21-.23,.48-.27,.33-.68,.84-.3,1.58,.32,.61,.23,.72,.1,.88-.04,.06-.09,.11-.12,.17l-.05,.07c-.21,.32-.57,.84-.46,1.7,.1,.73,1.01,1.25,1.77,1.56l.14,.05,.62-4.79,.62,4.8,.12-.05c.77-.31,1.71-.84,1.81-1.58,.12-.84-.23-1.37-.44-1.68Z"/>
                  <polygon class="cls-4" points="321.82 53.57 323.37 41.57 324.91 53.57 321.82 53.57"/>
                </g>
                <rect class="cls-4" x="321.89" y="53.52" width="2.97" height="8.32" transform="translate(646.76 115.36) rotate(-180)"/>
                <rect class="cls-4" x="321.88" y="61.84" width="2.97" height="8.63" transform="translate(646.73 132.32) rotate(-180)"/>
              </g>
              <rect class="cls-4" x="321.88" y="70.48" width="2.97" height="8.63" transform="translate(646.73 149.6) rotate(-180)"/>
            </g>
          </g>
          <rect class="cls-6" x="322.24" y="62.2" width="2.26" height="7.91"/>
          <rect class="cls-6" x="322.24" y="70.84" width="2.26" height="7.89"/>
          <rect class="cls-6" x="322.24" y="53.52" width="2.26" height="7.97"/>
          <polygon class="cls-6" points="322.24 53.11 324.49 53.11 323.37 44.38 322.24 53.11"/>
          <g>
            <path class="cls-2" d="M325.77,40.04s-.04-.05-.05-.08c-.06-.09-.11-.15-.15-.2-.01-.01-.02-.03-.04-.04,.01-.06,.05-.19,.18-.44,.5-.96-.06-1.65-.33-1.98-.05-.06-.11-.14-.15-.19,.19-.62,.05-1.45-.37-2.05-.36-.51-.87-.79-1.43-.79-.01,0-.02,0-.04,0-.01,0-.02,0-.04,0-.56,0-1.07,.28-1.43,.79-.42,.6-.58,1.43-.38,2.06-.04,.05-.1,.14-.15,.2-.27,.33-.83,1.02-.34,1.97,.13,.26,.17,.39,.18,.44-.01,.01-.02,.03-.03,.04-.04,.05-.09,.12-.15,.2l-.04,.06c-.23,.33-.65,.96-.52,1.95,.1,.73,.77,1.35,1.98,1.85h0s0,0,0,0l.22,.08-.05,.38-1.14,8.83v.81s0,7.56,0,7.56v17.25h0v.61s0,.14,0,.14h0v4.75s3.69,0,3.69,0v-4.75s0,0,0,0v-26.36s-1.13-8.83-1.13-8.83l-.05-.36,.21-.09c1.24-.5,1.93-1.13,2.03-1.87,.14-.98-.28-1.6-.5-1.93Zm-3.54,22.16h2.26v7.91h-2.26v-7.91Zm0,8.64h2.26v7.89h-2.26v-7.89Zm2.26,12.67h-2.26s0-4.04,0-4.04h2.26v4.04Zm0-22.03h-2.26v-7.97h2.26v7.97Zm0-8.38h-2.24l1.12-9.04,1.12,9.04Zm1.07-11.23c-.08,.57-.94,1.03-1.59,1.3h-.03s-.57-4.42-.57-4.42l-.57,4.42-.06-.02c-.65-.27-1.46-.72-1.54-1.28-.1-.78,.25-1.22,.45-1.52,.19-.3,.55-.43,.04-1.41-.5-.98,.81-1.29,.55-2.02-.23-.64,.2-1.94,1.12-1.94,.01,0,.02,0,.04,0,.01,0,.02,0,.04,0,.92,0,1.35,1.3,1.11,1.94-.26,.73,1.06,1.05,.55,2.02-.51,.98-.15,1.1,.04,1.41,.19,.3,.55,.74,.44,1.52Z"/>
            <path class="cls-2" d="M321.52,100.01l3.69,2.57v-8.58h-3.69v6.01Zm.72-5.29h2.26v6.48l-2.26-1.57v-4.92Z"/>
          </g>
          <g>
            <g>
              <path class="cls-2" d="M329.92,68.48c-.07-.1-.18-.16-.3-.16h-2.97c-.14,0-.27,.09-.33,.22l-4.39,10.41c-.05,.11-.03,.24,.03,.34,.07,.1,.18,.16,.3,.16h2.02c1.03,0,1.51-.92,1.53-.96,0,0,0-.01,0-.02l4.13-9.64c.05-.11,.04-.24-.03-.34Z"/>
              <path class="cls-2" d="M329.62,68.33h-2.97c-.11,0-.22,.05-.29,.15-.07,.09-.09,.21-.05,.32l.07,.21,.23,.7,.94,2.9,2.42,7.4v-2.16s0-.05,0-.08v-9.08c0-.2-.16-.36-.36-.36Z"/>
            </g>
            <path class="cls-2" d="M324.84,70.33l-4.39-10.41c-.06-.13-.19-.22-.33-.22h-2.97c-.12,0-.23,.06-.3,.16-.03,.04-.04,.08-.05,.13,0,0,0,0,0,0,0,.02,0,.04,0,.07,0,0,0,0,0,0v11.32l2.09-6.38,2.07,4.84s0,.01,0,.02c.02,.04,.5,.96,1.53,.96h2.02c.12,0,.23-.06,.3-.16,.07-.1,.08-.23,.03-.34Z"/>
            <g>
              <path class="cls-2" d="M324.86,53.07l-4.39-8.92c-.06-.12-.19-.2-.32-.2h-2.97c-.12,0-.24,.06-.31,.17-.07,.11-.07,.24-.02,.35l4.13,8.26s0,.02,.01,.02c.02,.03,.5,.83,1.52,.83h2.02c.12,0,.24-.06,.3-.17,.07-.11,.07-.24,.02-.35Z"/>
              <path class="cls-2" d="M320.39,44.64l.07-.21c.04-.11,.02-.23-.05-.32-.07-.09-.17-.15-.29-.15h-2.97c-.2,0-.36,.16-.36,.36v11.32l2.55-7.79,.86-2.62,.19-.59Z"/>
            </g>
            <g>
              <path class="cls-2" d="M329.93,52.73c-.07-.11-.18-.17-.31-.17h-2.97c-.14,0-.26,.08-.32,.2l-4.39,8.92c-.05,.11-.05,.24,.02,.35,.07,.11,.18,.17,.3,.17h2.02c1.02,0,1.5-.8,1.52-.83,0,0,0-.01,.01-.02l4.13-8.26c.06-.11,.05-.24-.02-.35Z"/>
              <path class="cls-2" d="M329.65,52.57h-2.97c-.11,0-.22,.05-.29,.15-.07,.09-.09,.21-.05,.32l.07,.21,.19,.59,.85,2.62,2.54,7.78v-2.16s0-.05,0-.08v-9.08c0-.2-.16-.36-.36-.36Z"/>
            </g>
          </g>
          <g>
            <g>
              <g>
                <path class="cls-3" d="M322.8,78.73h1.48c.56,0,.85-.49,.89-.56l2.39-5.57-.94-2.9-3.81,9.03Z"/>
                <polygon class="cls-3" points="327.14 69.04 329.27 75.5 329.27 69.04 327.14 69.04"/>
              </g>
              <g>
                <path class="cls-3" d="M320.16,61.08l-.95,2.89,2.39,5.57c.04,.07,.33,.56,.89,.56h1.48l-3.81-9.03Z"/>
                <polygon class="cls-3" points="317.5 66.88 317.5 60.42 319.63 60.42 317.5 66.88"/>
              </g>
            </g>
            <g>
              <g>
                <path class="cls-3" d="M322.83,61.48h1.44c.56,0,.86-.42,.9-.47l2.28-4.55-.85-2.62-3.77,7.65Z"/>
                <polygon class="cls-3" points="329.29 59.74 329.29 53.28 327.16 53.28 329.29 59.74"/>
              </g>
              <g>
                <path class="cls-3" d="M320.19,45.23l-.86,2.62,2.28,4.56c.04,.06,.33,.47,.9,.47h1.44l-3.77-7.65Z"/>
                <polygon class="cls-3" points="317.5 51.13 317.5 44.67 319.63 44.67 317.5 51.13"/>
              </g>
            </g>
          </g>
        </g>
        <g>
          <polygon class="cls-4" points="398.03 94.36 401.01 94.36 401.01 99.83 398.03 101.89 398.03 94.36"/>
          <g>
            <rect class="cls-4" x="398.03" y="79.09" width="2.97" height="4.78"/>
            <g>
              <g>
                <path class="cls-4" d="M397.41,40.24l.05-.08c.04-.06,.08-.12,.13-.17,.13-.16,.22-.26-.1-.87-.39-.75,.02-1.25,.29-1.59,.22-.27,.27-.36,.23-.48-.19-.51-.06-1.27,.31-1.79,.29-.41,.69-.64,1.14-.64h.04s.04,0,.04,0c.44,0,.85,.23,1.14,.63,.37,.52,.5,1.27,.32,1.79-.04,.12,.01,.21,.23,.48,.27,.33,.68,.84,.3,1.58-.32,.61-.23,.72-.1,.88,.04,.06,.09,.11,.12,.17l.05,.07c.21,.32,.57,.84,.46,1.7-.1,.73-1.01,1.25-1.77,1.56l-.14,.05-.62-4.79-.62,4.8-.12-.05c-.77-.31-1.71-.84-1.81-1.58-.12-.84,.23-1.37,.44-1.68Z"/>
                <polygon class="cls-4" points="401.06 53.57 399.52 41.57 397.98 53.57 401.06 53.57"/>
              </g>
              <rect class="cls-4" x="398.02" y="53.52" width="2.97" height="8.32"/>
              <rect class="cls-4" x="398.03" y="61.84" width="2.97" height="8.63"/>
            </g>
            <rect class="cls-4" x="398.03" y="70.48" width="2.97" height="8.63"/>
          </g>
        </g>
        <rect class="cls-6" x="398.39" y="62.2" width="2.26" height="7.91"/>
        <rect class="cls-6" x="398.39" y="70.84" width="2.26" height="7.89"/>
        <rect class="cls-6" x="398.39" y="53.52" width="2.26" height="7.97"/>
        <polygon class="cls-6" points="400.64 53.11 398.4 53.11 399.52 44.38 400.64 53.11"/>
        <g>
          <path class="cls-2" d="M396.61,41.97c.1,.73,.78,1.36,2.03,1.87l.21,.09-.05,.36-1.13,8.83v.81s0,7.56,0,7.56v.72s0,7.92,0,7.92v9.35s0,0,0,0v4.75s3.69,0,3.69,0v-4.75h0v-.75s0,0,0,0v-7.9s0-.71,0-.71v-7.92s0-.72,0-.72v-7.56s0-.81,0-.81l-1.14-8.83-.05-.38,.22-.08h0s0,0,0,0c1.21-.5,1.88-1.12,1.98-1.85,.13-.99-.29-1.61-.52-1.95l-.04-.06c-.05-.08-.1-.15-.15-.2-.01-.01-.02-.03-.03-.04,.01-.06,.05-.19,.18-.44,.49-.96-.07-1.64-.34-1.97-.05-.06-.11-.14-.15-.2,.19-.62,.04-1.46-.38-2.06-.36-.51-.87-.79-1.43-.79-.01,0-.02,0-.04,0-.01,0-.02,0-.04,0-.57,0-1.08,.28-1.43,.79-.42,.6-.57,1.43-.37,2.05-.04,.05-.1,.14-.15,.19-.27,.33-.84,1.02-.33,1.98,.13,.25,.17,.38,.18,.44-.01,.01-.02,.03-.04,.04-.04,.05-.1,.12-.15,.2-.02,.02-.03,.05-.05,.08-.22,.33-.64,.95-.5,1.93Zm4.03,28.14h-2.26v-7.91h2.26v7.91Zm0,8.61h-2.26v-7.89h2.26v7.89Zm-2.26,.75h2.26v4.03s-2.26,0-2.26,0v-4.04Zm0-25.96h2.26v7.97h-2.26v-7.97Zm1.13-9.46l1.13,9.05h-2.26s1.13-9.05,1.13-9.05Zm-1.75-3.7c.2-.3,.56-.43,.04-1.41-.51-.98,.81-1.29,.55-2.02-.23-.64,.19-1.94,1.11-1.94,.01,0,.02,0,.04,0,.01,0,.02,0,.04,0,.92,0,1.35,1.3,1.12,1.94-.26,.73,1.05,1.05,.55,2.02-.51,.98-.15,1.1,.04,1.41,.2,.3,.55,.74,.45,1.52-.08,.55-.89,1.01-1.54,1.28l-.06,.02-.57-4.42-.57,4.44h-.03c-.66-.28-1.52-.74-1.59-1.31-.11-.78,.25-1.22,.44-1.52Z"/>
          <path class="cls-2" d="M401.37,94h-3.69s0,8.58,0,8.58l3.69-2.57v-6.01Zm-.72,5.63l-2.26,1.57v-6.48h2.26v4.92Z"/>
        </g>
        <g>
          <g>
            <path class="cls-2" d="M392.93,68.82l4.13,9.64s0,.01,0,.02c.02,.04,.5,.96,1.53,.96h2.02c.12,0,.23-.06,.3-.16,.07-.1,.08-.23,.03-.34l-4.39-10.41c-.06-.13-.19-.22-.33-.22h-2.97c-.12,0-.23,.06-.3,.16-.07,.1-.08,.23-.03,.34Z"/>
            <path class="cls-2" d="M393.26,68.33h2.97c.11,0,.22,.05,.29,.15,.07,.09,.09,.21,.05,.32l-.07,.21-.23,.7-.94,2.9-2.42,7.4v-2.16s0-.05,0-.08v-9.08c0-.2,.16-.36,.36-.36Z"/>
          </g>
          <path class="cls-2" d="M398.07,70.67c.07,.1,.18,.16,.3,.16h2.02c1.03,0,1.51-.92,1.53-.96,0,0,0-.01,0-.02l2.07-4.84,2.09,6.38v-2.24s0-9.08,0-9.08c0,0,0,0,0,0,0-.02,0-.04,0-.07,0,0,0,0,0,0,0-.04-.02-.09-.05-.13-.07-.1-.18-.16-.3-.16h-2.97c-.14,0-.27,.09-.33,.22l-4.39,10.41c-.05,.11-.03,.24,.03,.34Z"/>
          <g>
            <path class="cls-2" d="M398.05,53.42c.07,.11,.18,.17,.3,.17h2.02c1.02,0,1.5-.8,1.52-.83,0,0,0-.01,.01-.02l4.13-8.26c.06-.11,.05-.24-.02-.35-.07-.11-.18-.17-.31-.17h-2.97c-.14,0-.26,.08-.32,.2l-4.39,8.92c-.05,.11-.05,.24,.02,.35Z"/>
            <path class="cls-2" d="M402.5,44.64l-.07-.21c-.04-.11-.02-.23,.05-.32,.07-.09,.17-.15,.29-.15h2.97c.2,0,.36,.16,.36,.36v9.08s0,2.24,0,2.24l-2.55-7.79-.86-2.62-.19-.59Z"/>
          </g>
          <g>
            <path class="cls-2" d="M392.94,53.08l4.13,8.26s0,.02,.01,.02c.02,.03,.5,.83,1.52,.83h2.02c.12,0,.24-.06,.3-.17,.07-.11,.07-.24,.02-.35l-4.39-8.92c-.06-.12-.19-.2-.32-.2h-2.97c-.12,0-.24,.06-.31,.17-.07,.11-.07,.24-.02,.35Z"/>
            <path class="cls-2" d="M393.24,52.57h2.97c.11,0,.22,.05,.29,.15,.07,.09,.09,.21,.05,.32l-.07,.21-.19,.59-.85,2.62-2.54,7.78v-2.16s0-.05,0-.08v-9.08c0-.2,.16-.36,.36-.36Z"/>
          </g>
        </g>
        <g>
          <g>
            <g>
              <path class="cls-3" d="M400.09,78.73h-1.48c-.56,0-.85-.49-.89-.56l-2.39-5.57,.94-2.9,3.81,9.03Z"/>
              <polygon class="cls-3" points="395.75 69.04 393.62 75.5 393.62 69.04 395.75 69.04"/>
            </g>
            <g>
              <path class="cls-3" d="M402.73,61.08l.95,2.89-2.39,5.57c-.04,.07-.33,.56-.89,.56h-1.48s3.81-9.03,3.81-9.03Z"/>
              <polygon class="cls-3" points="405.39 66.88 405.39 60.42 403.26 60.42 405.39 66.88"/>
            </g>
          </g>
          <g>
            <g>
              <path class="cls-3" d="M400.05,61.48h-1.44c-.56,0-.86-.42-.9-.47l-2.28-4.55,.85-2.62,3.77,7.65Z"/>
              <polygon class="cls-3" points="393.59 59.74 393.59 53.28 395.72 53.28 393.59 59.74"/>
            </g>
            <g>
              <path class="cls-3" d="M402.69,45.23l.86,2.62-2.28,4.56c-.04,.06-.33,.47-.9,.47h-1.44s3.77-7.65,3.77-7.65Z"/>
              <polygon class="cls-3" points="405.39 51.13 405.39 44.67 403.26 44.67 405.39 51.13"/>
            </g>
          </g>
        </g>
        <g>
          <path class="cls-2" d="M361.44,109c-16.62,0-30.14-13.52-30.14-30.14V37.49h60.27v41.37c0,16.62-13.52,30.14-30.14,30.14Zm-29.27-70.64v40.5c0,16.14,13.13,29.27,29.27,29.27s29.27-13.13,29.27-29.27V38.36s-58.53,0-58.53,0Z"/>
          <g>
            <rect class="cls-2" x="331.83" y="61.02" width="59.13" height=".87"/>
            <rect class="cls-2" x="332.16" y="83.44" width="58.55" height=".87"/>
          </g>
        </g>
        <path class="cls-2" d="M408.4,91.41v-.74c0-.58-.23-1.13-.65-1.54-.02-.02-.05-.04-.07-.06,.02-.02,.04-.04,.07-.06,.42-.41,.65-.95,.65-1.54v-4.67s0,0,0,0c0,0,0-.02,0-.02,0-.8-.65-1.45-1.45-1.45,0,0,0,0,0,0,0,0,0,0,0,0h-.83v-2.18h-1.94c-.8,0-1.45,.65-1.45,1.45h0v2.92h-9.77c-1.37,0-2.55,.93-2.86,2.25,0,.02-.54,2-1.22,3.82-.67,1.79-1.46,3.26-2.01,4.17l-.02,.03c-.22,.32-.46,.66-.68,1.03-.17,.17-.31,.36-.42,.58-.27,.55-.41,1.43,.34,2.61-5.88,7.59-15.02,12.09-24.64,12.09s-18.73-4.49-24.61-12.05c.78-1.2,.64-2.09,.37-2.65-.07-.15-.16-.28-.27-.41-.22-.42-.53-.82-.8-1.21l-.02-.03c-.54-.91-1.33-2.38-2.01-4.17-.68-1.82-1.21-3.8-1.22-3.81-.32-1.33-1.49-2.26-2.87-2.26h-9.87v-2.92h0c0-.8-.65-1.45-1.45-1.45h-1.94v2.18h-.83s0,0,0,0c0,0,0,0,0,0-.8,0-1.45,.65-1.45,1.45v3.75h0v.94c0,.58,.23,1.13,.65,1.54,.03,.03,.05,.04,.07,.06-.02,.02-.04,.04-.07,.06-.42,.41-.65,.95-.65,1.54v.74h0v4.05c0,.8,.65,1.45,1.45,1.45,0,0,0,0,0,0,0,0,0,0,0,0h.83v2.18h1.94c.8,0,1.45-.65,1.45-1.45h0v-2.92h10.94c-.12,.73-.41,2.41-.67,3.93-.59,3.37-.94,5.43-.94,5.71,0,.75,.26,1.5,.72,2.09,.05,.06,.18,.22,.31,.37,.02,.04,.87,.98,.91,1.02,7.83,8.15,18.71,12.81,30.04,12.81s22.15-4.63,29.98-12.74c.02,0,.4-.41,.76-.79,.29-.31,.77-.81,1.1-1.56,.16-.37,.22-.78,.22-1.19,0-.28-.35-2.34-.94-5.71-.27-1.52-.56-3.19-.67-3.93h10.83v2.92h0c0,.8,.65,1.45,1.45,1.45h1.94v-2.18h.83s0,0,0,0c0,0,0,0,0,0,.8,0,1.45-.65,1.45-1.45,0,0,0-.01,0-.02v-4.03Zm-4.23-11.55h1.22v1.47h-1.22c-.4,0-.73-.33-.73-.73s.33-.73,.73-.73Zm-.74,1.98c.22,.13,.47,.2,.74,.2h2.77s0,0,0,0c0,0,0,0,0,0,.4,0,.73,.33,.73,.73s-.33,.73-.73,.73c0,0,0,0-.01,0,0,0,0,0-.01,0h-3.49s0-1.67,0-1.67Zm-85.97-1.98h1.22c.4,0,.73,.33,.73,.73s-.33,.73-.73,.73h-1.22v-1.47Zm-1.56,2.18s0,0,0,0c0,0,0,0,0,0h2.77c.27,0,.52-.07,.74-.2v1.67h-3.52c-.4,0-.73-.33-.73-.73s.33-.73,.73-.73Zm2.78,16.33h-1.22v-1.47h1.22c.4,0,.73,.33,.73,.73s-.33,.73-.73,.73Zm.74-1.98c-.22-.13-.47-.2-.74-.2h-2.77s0,0,0,0c0,0,0,0,0,0-.4,0-.73-.33-.73-.73s.33-.73,.73-.73h3.52v1.67Zm-3.52-2.39c-.27,0-.52,.07-.73,.2v-3.43s0,0,0,0v-.1c0-.39,.15-.75,.43-1.02,.19-.19,.23-.23,.31-.3l.26-.26h-.01s.01-.03,.01-.03c-.17-.16-.23-.23-.29-.29-.06-.07-.12-.12-.29-.28-.28-.27-.43-.63-.43-1.02v-.08s0,0,0,0v-3.36c.22,.13,.47,.2,.73,.2h14.11c1.04,0,1.93,.7,2.17,1.72,0,.02,.54,2.03,1.24,3.89,.68,1.82,1.49,3.31,2.04,4.25-.24-.06-.48-.09-.69-.09h-.01c-.13,0-.28,0-.43,0-.08,0-.16,0-.24,0h-2.07c-.14,0-.22,0-.22,0h0s-15.89,0-15.89,0Zm14.7,10.84c-.08,.21-.13,.42-.17,.65-.17-.36-.26-.74-.26-1.14,0-.29,.54-3.35,.93-5.58,.43-2.45,.62-3.55,.69-4.05h.01c.2,0,1.99,0,2.96,0h0c.62,0,1.45,.35,1.77,1,.3,.6,.12,1.37-.52,2.22-1.1,1.45-2.58,3.17-3.62,4.35l-.18,.21c-.48,.54-1,1.13-1.36,1.8-.11,.19-.19,.37-.25,.55Zm61.06,1.65c-.03,.07-.16,.27-.2,.31-.06,.07-.12,.13-.19,.2-7.72,8.21-18.55,12.91-29.84,12.91s-22.22-4.74-29.94-13.03c-.32-.46-.63-1.32,.17-2.51,.17-.25,.38-.55,.63-.87,.15-.18,.31-.36,.46-.53l.18-.21c.99-1.12,2.36-2.71,3.44-4.12,6.02,7.64,15.29,12.17,25.05,12.17s19.05-4.54,25.08-12.21c1.09,1.41,2.47,3.02,3.47,4.15l.18,.21c.68,.77,1.45,1.63,1.61,2.65,0,.08,.01,.15,.01,.22,0,.25-.05,.46-.13,.65Zm1.11-2.15c0,.42-.1,.83-.28,1.2-.18-1.23-1.03-2.19-1.79-3.05,0,0-2.7-3.11-3.8-4.56-.64-.85-.82-1.61-.52-2.22,.33-.65,1.17-1,1.78-1,1.02,0,2.98,0,2.98,0h0s.02,0,.02,0c.07,.5,.26,1.6,.69,4.05,.39,2.23,.92,5.29,.93,5.58Zm-3.91-10.34s-.05,0-.08,0c-.23,0-.45,0-.63,0h-.01c-.21,0-.43,.03-.66,.08,.56-.94,1.36-2.43,2.04-4.25,.7-1.86,1.24-3.87,1.24-3.9,.24-1.01,1.13-1.71,2.17-1.71h13.98s0,0,.01,0c0,0,0,0,.01,0,.27,0,.52-.07,.73-.2v3.44c0,.39-.15,.75-.43,1.02-.17,.16-.22,.22-.29,.28-.06,.06-.12,.12-.29,.29h.01s-.01,.03-.01,.03l.26,.26c.08,.08,.12,.12,.31,.3,.28,.27,.43,.63,.43,1.02v3.54c-.22-.13-.47-.2-.73-.2,0,0-.01,0-.02,0,0,0-.01,0-.02,0h-18.05Zm16.52,4.37h-1.22c-.4,0-.73-.33-.73-.73s.33-.73,.73-.73h1.22v1.47Zm1.56-2.18s0,0,0,0c0,0,0,0,0,0h-2.77c-.27,0-.52,.07-.74,.2v-1.67h3.48s.01,0,.02,0c0,0,.01,0,.02,0,.4,0,.73,.32,.73,.73h0s0,.01,0,.01c0,.4-.33,.73-.73,.73Z"/>
      </g>
      <g>
        <path class="cls-2" d="M90.79,121.55c0-1.71,.57-5.16,1.72-10.37,1.15-5.2,2.53-10.94,4.14-17.22l-2.86,.59c-1.05,.23-2.04,.42-2.98,.57-.94,.15-1.7,.22-2.29,.22-1.41,0-2.4-.46-2.96-1.38-.39-.56-.59-.98-.59-1.28,0-.39,.25-.59,.74-.59,.13,0,.49,.06,1.08,.17,.59,.12,1.07,.17,1.43,.17,.43,0,1.14-.08,2.14-.25,1-.16,1.72-.28,2.14-.34,3.45-.56,5.01-.82,4.68-.79,.07-.52,.1-1.21,.1-2.07,0-.72-.02-1.27-.07-1.65-.05-.38-.07-.58-.07-.62,0-.33,.18-.49,.54-.49,.16,0,.3,.05,.39,.15,.1,.1,.33,.27,.69,.52,.36,.25,.67,.64,.94,1.18,.26,.54,.39,1.27,.39,2.19v.39c.85-.13,1.4-.21,1.63-.25,4.6-.76,7.58-1.22,8.94-1.4,1.36-.18,2.54-.27,3.52-.27,1.87,0,2.94,.33,3.2,.99,.26,.62,.39,1.05,.39,1.28,0,.39-.26,.59-.79,.59-.26,0-.56-.02-.89-.05-.33-.03-.76-.05-1.28-.05-2.1,0-7.16,.64-15.17,1.92-1.54,6.86-2.91,13.12-4.09,18.77-1.05,4.8-1.7,7.62-1.95,8.47-.25,.85-.59,1.39-1.03,1.63-.44,.23-.78,.44-1.01,.64-.53,0-.79-.46-.79-1.38Z"/>
        <path class="cls-2" d="M99.02,120.67c-.2-.1-.46-.3-.79-.59-.33-.3-.54-.59-.64-.89v-.15c0-.13,.03-.26,.1-.39,.1-.53,.26-1.48,.49-2.86,.23-1.38,.48-3.09,.74-5.12,.62-4.79,.94-7.96,.94-9.51,0-.53,.15-.79,.44-.79,.23,0,.43,.12,.59,.35,.26,.3,.5,.66,.71,1.08,.21,.43,.3,.8,.27,1.13l-.89,7.49c1.35-3.15,2.43-5.4,3.25-6.75,1.12-1.84,2.09-2.76,2.91-2.76,.3-.03,.56,.05,.79,.25,.23,.2,.48,.48,.74,.84,.1,.13,.15,.41,.15,.84,0,.53-.1,1.23-.3,2.12-.3,1.48-.58,2.43-.84,2.86-.2,.23-.38,.35-.54,.35-.23,0-.42-.12-.57-.37-.15-.25-.25-.52-.32-.81-.03-.07-.03-.11,0-.15,.03-.16,.16-.71,.37-1.63,.21-.92,.32-1.56,.32-1.92v-.05c-.69,.62-1.92,2.86-3.69,6.7-.89,1.94-1.69,3.88-2.41,5.84-.72,1.95-1.17,3.51-1.33,4.65,0,.1-.05,.18-.15,.25-.03,.03-.08,.05-.15,.05-.1,0-.16-.02-.2-.05Z"/>
        <path class="cls-2" d="M114.48,116.63c0-.69,.08-1.49,.25-2.41-1.05,2.1-1.93,3.67-2.64,4.7-.71,1.03-1.44,1.55-2.19,1.55-.82,0-1.44-.54-1.85-1.63-.41-1.08-.62-2.45-.62-4.09,0-1.81,.23-3.45,.69-4.93,.36-1.18,.94-2.46,1.75-3.82,.8-1.36,1.73-2.52,2.78-3.47,1.05-.95,2.1-1.43,3.15-1.43,.62,0,1.15,.1,1.58,.3,.43,.2,.74,.39,.94,.59,.23-.49,.46-.9,.69-1.23,.23-.33,.49-.49,.79-.49,.26,0,.52,.08,.76,.25,.25,.16,.43,.38,.57,.64,.07,.2,.1,.38,.1,.54,0,.69-.21,1.4-.64,2.12-.33,.62-.8,1.78-1.43,3.47-.62,1.69-1.17,3.44-1.65,5.25-.48,1.81-.71,3.25-.71,4.33,0,.56,.07,.97,.2,1.23,.13,.23,.28,.35,.44,.35,.43,.1,.86-.25,1.31-1.06,.44-.8,.94-1.95,1.5-3.42,.43-1.08,.76-1.89,1.01-2.41,.25-.52,.48-.77,.71-.74l.2,.05c.16,.07,.25,.21,.25,.44,0,.26-.07,.61-.2,1.03-.36,1.67-1,3.48-1.92,5.42-.92,1.94-1.94,2.91-3.05,2.91-.2,0-.34-.02-.44-.05-1.54-.39-2.32-1.72-2.32-3.99Zm-.59-4.8c1.15-2.28,2.32-4.85,3.5-7.71,.07-.13,.13-.29,.2-.47,.07-.18,.07-.27,0-.27-.72,0-1.63,.31-2.71,.94-1.08,.62-2.18,1.97-3.3,4.04-1.15,2.17-1.72,4.27-1.72,6.31,0,1.18,.15,2.07,.44,2.66,1.25-1.38,2.45-3.21,3.6-5.49Z"/>
        <path class="cls-2" d="M125.37,121.04c-.56-.84-1-2.44-1.33-4.8-.79,1.77-1.37,3-1.75,3.69-.38,.69-.73,1.03-1.06,1.03-.2,0-.46-.15-.79-.44-.33-.3-.49-.76-.49-1.38,0-.49,.27-1.97,.81-4.43,.54-2.46,1.14-5.09,1.8-7.88,.2-.89,.61-2.68,1.23-5.39,.62-2.71,1.09-4.86,1.4-6.45,.31-1.59,.47-2.64,.47-3.13v-.1c0-.13,.05-.24,.15-.32,.1-.08,.2-.12,.3-.12,.13,0,.25,.05,.34,.15,.95,.92,1.43,1.59,1.43,2.02,0,1.74-.2,3.47-.59,5.2-.39,1.72-1.08,4.31-2.07,7.76l-2.17,7.83c1.38-3.22,2.86-6.22,4.46-9.01,1.59-2.79,3.03-4.19,4.31-4.19,.56,0,1.04,.36,1.45,1.08,.41,.72,.62,1.89,.62,3.5s-.23,3.65-.69,6.33c-.46,2.68-1.17,5.07-2.12,7.17-.95,2.1-2.14,3.15-3.55,3.15-.89,0-1.61-.42-2.17-1.26Zm2.78-1.28c.21-.21,.41-.57,.59-1.06,.18-.49,.47-1.41,.86-2.76,.16-.66,.28-1.08,.34-1.28,.53-1.81,.93-3.52,1.21-5.15,.28-1.63,.42-2.95,.42-3.97,0-.53-.04-.93-.12-1.21-.08-.28-.19-.42-.32-.42-.26,0-.94,.95-2.02,2.86-1.08,1.91-2.33,4.22-3.74,6.95l.1,1.08c.2,1.67,.41,2.97,.64,3.89,.23,.92,.61,1.38,1.13,1.38,.39,0,.7-.11,.91-.32Z"/>
        <path class="cls-2" d="M140.79,116.63c0-.69,.08-1.49,.25-2.41-1.05,2.1-1.93,3.67-2.64,4.7-.71,1.03-1.44,1.55-2.19,1.55-.82,0-1.44-.54-1.85-1.63-.41-1.08-.62-2.45-.62-4.09,0-1.81,.23-3.45,.69-4.93,.36-1.18,.94-2.46,1.75-3.82,.8-1.36,1.73-2.52,2.78-3.47,1.05-.95,2.1-1.43,3.15-1.43,.62,0,1.15,.1,1.58,.3,.43,.2,.74,.39,.94,.59,.23-.49,.46-.9,.69-1.23,.23-.33,.49-.49,.79-.49,.26,0,.52,.08,.76,.25,.25,.16,.43,.38,.57,.64,.07,.2,.1,.38,.1,.54,0,.69-.21,1.4-.64,2.12-.33,.62-.8,1.78-1.43,3.47-.62,1.69-1.17,3.44-1.65,5.25-.48,1.81-.71,3.25-.71,4.33,0,.56,.07,.97,.2,1.23,.13,.23,.28,.35,.44,.35,.43,.1,.86-.25,1.31-1.06,.44-.8,.94-1.95,1.5-3.42,.43-1.08,.76-1.89,1.01-2.41,.25-.52,.48-.77,.71-.74l.2,.05c.16,.07,.25,.21,.25,.44,0,.26-.07,.61-.2,1.03-.36,1.67-1,3.48-1.92,5.42-.92,1.94-1.94,2.91-3.05,2.91-.2,0-.34-.02-.44-.05-1.54-.39-2.32-1.72-2.32-3.99Zm-.59-4.8c1.15-2.28,2.32-4.85,3.5-7.71,.07-.13,.13-.29,.2-.47,.07-.18,.07-.27,0-.27-.72,0-1.63,.31-2.71,.94-1.08,.62-2.18,1.97-3.3,4.04-1.15,2.17-1.72,4.27-1.72,6.31,0,1.18,.15,2.07,.44,2.66,1.25-1.38,2.45-3.21,3.6-5.49Z"/>
        <path class="cls-2" d="M148.08,119.9c-.72-.54-1.08-1.7-1.08-3.47,0-1.9,.42-4.88,1.26-8.92,.84-4.04,1.85-7.73,3.03-11.06,1.18-3.33,2.3-5.2,3.35-5.59h.1c.52,0,.84,.26,.94,.79-1.58,4.73-2.95,9.37-4.11,13.92-1.17,4.55-1.85,8.19-2.04,10.91v.44c.07,1.02,.31,1.51,.74,1.48,.62-.03,1.18-.53,1.67-1.48,.49-.95,1-2.2,1.53-3.74,.23-.66,.45-1.24,.67-1.75,.21-.51,.4-.76,.57-.76,.07-.03,.12-.03,.17,.02,.05,.05,.07,.12,.07,.22,.03,.43-.22,1.48-.76,3.15-.54,1.67-1.18,3.19-1.92,4.56-.74,1.36-1.45,2.06-2.14,2.09-.62,0-1.3-.27-2.02-.81Z"/>
        <path class="cls-2" d="M159.16,126.97c-.49-.66-.77-1.4-.84-2.22-.07-1.12-.1-1.97-.1-2.56,0-5.09,1.08-10.85,3.25-17.29-1.84,2.92-3.14,5.44-3.89,7.54-.76,2.1-1.33,4.14-1.72,6.11-.16,.85-.31,1.43-.44,1.72-.13,.3-.34,.44-.64,.44-.43,0-.83-.34-1.21-1.01-.38-.67-.57-1.49-.57-2.44,0-1.31,.52-4.28,1.55-8.89,1.03-4.61,2.13-8.97,3.28-13.08,1.15-4.11,1.89-6.16,2.22-6.16,.3,0,.68,.15,1.16,.44,.48,.3,.71,.71,.71,1.23,0,.17-.12,.56-.34,1.18-.23,.62-.39,1.1-.49,1.43-1.02,2.79-1.97,5.67-2.86,8.65-.89,2.97-1.64,6.3-2.27,9.98,1.54-3.97,2.93-6.79,4.16-8.45,1.23-1.66,2.27-2.49,3.13-2.49,.39,0,.71,.17,.96,.52,.25,.34,.37,.71,.37,1.11,0,.3-.07,.51-.2,.64-.16,.2-.57,1.34-1.21,3.42-.64,2.09-1.23,4.63-1.77,7.64-.54,3-.81,6.13-.81,9.38,0,1.44,.13,2.17,.39,2.17s.48-.14,.64-.42c.16-.28,.39-.76,.69-1.45,.95-2.23,1.62-4.2,2-5.89,.38-1.69,.67-3.41,.86-5.15,.1-.82,.18-1.37,.25-1.65,.07-.28,.2-.42,.39-.42,.33,0,.49,.23,.49,.69,0,.92-.24,2.74-.71,5.47-.48,2.73-1.13,5.2-1.95,7.44-.82,2.23-1.76,3.35-2.81,3.35-.62,0-1.18-.33-1.68-.99Z"/>
        <path class="cls-2" d="M171.48,116.63c0-.69,.08-1.49,.25-2.41-1.05,2.1-1.93,3.67-2.64,4.7-.71,1.03-1.44,1.55-2.19,1.55-.82,0-1.44-.54-1.85-1.63-.41-1.08-.62-2.45-.62-4.09,0-1.81,.23-3.45,.69-4.93,.36-1.18,.94-2.46,1.75-3.82,.8-1.36,1.73-2.52,2.78-3.47,1.05-.95,2.1-1.43,3.15-1.43,.62,0,1.15,.1,1.58,.3,.43,.2,.74,.39,.94,.59,.23-.49,.46-.9,.69-1.23,.23-.33,.49-.49,.79-.49,.26,0,.52,.08,.76,.25,.25,.16,.43,.38,.57,.64,.07,.2,.1,.38,.1,.54,0,.69-.21,1.4-.64,2.12-.33,.62-.8,1.78-1.43,3.47-.62,1.69-1.17,3.44-1.65,5.25-.48,1.81-.71,3.25-.71,4.33,0,.56,.07,.97,.2,1.23,.13,.23,.28,.35,.44,.35,.43,.1,.86-.25,1.31-1.06,.44-.8,.94-1.95,1.5-3.42,.43-1.08,.76-1.89,1.01-2.41,.25-.52,.48-.77,.71-.74l.2,.05c.16,.07,.25,.21,.25,.44,0,.26-.07,.61-.2,1.03-.36,1.67-1,3.48-1.92,5.42-.92,1.94-1.94,2.91-3.05,2.91-.2,0-.34-.02-.44-.05-1.54-.39-2.32-1.72-2.32-3.99Zm-.59-4.8c1.15-2.28,2.32-4.85,3.5-7.71,.07-.13,.13-.29,.2-.47,.07-.18,.07-.27,0-.27-.72,0-1.63,.31-2.71,.94-1.08,.62-2.18,1.97-3.3,4.04-1.15,2.17-1.72,4.27-1.72,6.31,0,1.18,.15,2.07,.44,2.66,1.25-1.38,2.45-3.21,3.6-5.49Z"/>
        <path class="cls-2" d="M184.19,125.17c-.36-.44-.54-.93-.54-1.45,0-.46,.16-1.76,.49-3.89,.33-2.13,.82-5.27,1.48-9.41l.25-1.48-2.27,3.74c-2.82,5.19-4.32,7.82-4.48,7.88l-.05,.05c-.2,.07-.34,.1-.44,.1-.16,0-.33-.02-.49-.07-.16-.05-.34-.09-.54-.12-.33-.16-.49-.69-.49-1.58,0-.72,.05-1.35,.15-1.87,.2-2.1,.41-3.58,.64-4.43l.25-1.03c.49-1.97,.97-3.6,1.43-4.88,.79-2.07,1.27-3.5,1.45-4.29,.18-.79,.27-1.2,.27-1.23,.13-.23,.46-.34,.98-.34,.36,0,.73,.07,1.11,.2,.38,.13,.67,.33,.86,.59,.13,.16,.2,.39,.2,.69,0,.33-.07,.64-.2,.94-.69,1.35-1.54,3.56-2.56,6.65-1.02,3.09-1.59,5.21-1.72,6.35,.07-.1,.14-.23,.22-.39,.08-.16,.2-.38,.37-.64,.33-.56,.66-1.18,.99-1.87,.16-.33,.46-.9,.89-1.72l2.02-3.55c.26-.46,.63-1.12,1.11-1.97,.48-.85,.85-1.56,1.11-2.12,.13-.52,.66-.79,1.58-.79,.79,0,1.38,.38,1.77,1.13,.13,.13,.2,.31,.2,.54,0,.26-.08,.51-.25,.74-.3,.39-.67,1.38-1.11,2.96-.44,1.58-1.03,3.79-1.75,6.65-.3,1.21-.55,2.48-.76,3.79-.21,1.31-.32,2.23-.32,2.76v.25c0,.07,.02,.1,.05,.1,.13,0,.57-.69,1.33-2.07,.76-1.38,1.35-2.53,1.77-3.45,.46-.99,.99-2.22,1.58-3.69,.23-.62,.44-1.14,.64-1.55,.2-.41,.38-.62,.54-.62,.23,0,.34,.1,.34,.3,0,.56-.48,2.09-1.45,4.61-.97,2.51-2,4.84-3.1,6.97-1.1,2.13-1.91,3.2-2.44,3.2-.36,0-.72-.22-1.08-.67Z"/>
        <path class="cls-2" d="M191.85,120.4c-.31-.21-.61-.67-.89-1.38-.28-.71-.42-1.73-.42-3.08s.23-3.15,.69-5.62c.46-2.46,1.18-4.7,2.17-6.7s2.25-3.01,3.79-3.01c.82,0,1.66,.31,2.51,.94,.85-3.84,1.58-6.64,2.17-8.4,.59-1.76,1.01-2.78,1.26-3.08,.25-.3,.48-.44,.71-.44,.33,0,.63,.19,.91,.57,.28,.38,.42,.81,.42,1.3l-.34,1.13c-3.02,9.2-4.53,16.65-4.53,22.37,0,1.35,.11,2.38,.34,3.1,1.02-1.58,1.92-3.41,2.71-5.52,.26-.62,.47-1.07,.62-1.35,.15-.28,.3-.42,.47-.42l.2,.05c.07,0,.1,.1,.1,.3,0,.72-.41,2.23-1.23,4.53l-.49,1.38c-.53,1.51-.94,2.49-1.23,2.93-.3,.44-.79,.67-1.48,.67-1.81,0-2.71-1.38-2.71-4.14,0-.69,.03-1.63,.1-2.81-.85,1.87-1.69,3.51-2.51,4.9-.82,1.4-1.61,2.09-2.36,2.09h-.3c-.13,0-.35-.11-.67-.32Zm3.33-4.95c.76-1.38,1.49-2.92,2.19-4.63,.71-1.71,1.19-3.32,1.45-4.83,.1-.33,.16-.79,.2-1.38l.3-1.72c-.13-.07-.34-.19-.62-.37-.28-.18-.52-.27-.71-.27-.79,0-1.54,.88-2.27,2.64-.72,1.76-1.31,3.76-1.75,6.01-.44,2.25-.67,3.92-.67,5,0,.53,.02,.98,.07,1.38,.05,.39,.09,.67,.12,.84,.36-.39,.92-1.28,1.68-2.66Z"/>
        <path class="cls-2" d="M203.5,117.91c-.03-.26-.05-.67-.05-1.23,0-1.81,.34-3.86,1.03-6.16,.69-2.3,1.53-4.14,2.51-5.52,.59-.82,1.08-1.43,1.48-1.82,.39-.39,.76-.59,1.08-.59,.26,0,.51,.12,.74,.35,.23-.59,.53-1.05,.89-1.38,.36-.33,.72-.49,1.08-.49,.66,0,1.23,.48,1.72,1.43,.49,.95,.74,2.3,.74,4.04,0,1.54-.15,2.99-.44,4.33-.3,1.35-.66,2.46-1.08,3.35,.92-.43,2.13-1.43,3.65-3l.49,.15c0,.3-.31,.79-.94,1.48-.62,.69-1.33,1.35-2.12,1.97-.79,.62-1.43,1-1.92,1.13-.69,1.41-1.61,2.56-2.76,3.45-1.15,.89-2.23,1.33-3.25,1.33-1.54,0-2.5-.94-2.86-2.81Zm3.05,1.68c.39,0,.89-.38,1.5-1.13,.61-.76,1.32-1.76,2.14-3-.95-.79-1.43-2.02-1.43-3.7,0-.89,.1-1.81,.3-2.78,.2-.97,.31-1.53,.34-1.7l.34-1.87c.1-.52-.07-.34-.49,.57-.43,.9-.91,2.06-1.45,3.47-.54,1.41-.93,2.51-1.16,3.3-.3,1.12-.53,2.09-.71,2.93-.18,.84-.27,1.49-.27,1.95,0,.59,.16,1.17,.49,1.72,.1,.16,.23,.25,.39,.25Zm5.64-11.16c.28-1.4,.42-2.67,.42-3.82,0-.85-.08-1.48-.25-1.87-.46,.72-.87,1.96-1.23,3.72-.36,1.76-.54,3.36-.54,4.8,0,1.15,.13,1.97,.39,2.46,.53-2.13,.93-3.9,1.21-5.3Z"/>
        <path class="cls-2" d="M221.23,130.77c-.36-.3-.54-.71-.54-1.23,0-.13,.03-.43,.1-.89,.26-1.45,.97-2.82,2.12-4.11,1.15-1.3,2.64-2.73,4.48-4.31,.26-.2,.53-.42,.81-.67,.28-.25,.47-.42,.57-.52-.16-.2-.49-.37-.99-.52-.49-.15-1.18-.32-2.07-.52-1.05-.16-1.84-.36-2.36-.59-1.05-.43-1.58-1.16-1.58-2.22,0-.53,.13-1.18,.39-1.97,.16-.62,.8-1.9,1.9-3.82,1.1-1.92,1.85-3.14,2.24-3.67,.2-.26,.3-.43,.3-.49h.05c.85-1.02,1.64-1.87,2.36-2.56,.72-.69,1.4-1.03,2.02-1.03,.26,0,.52,.08,.79,.25,.43,.26,.75,.57,.96,.91,.21,.35,.32,.68,.32,1.01s-.09,.6-.27,.81c-.18,.21-.42,.32-.71,.32-.62,.1-1.49,.8-2.61,2.09-1.12,1.3-2.12,2.72-3,4.26-.89,1.54-1.33,2.69-1.33,3.45,0,.36,.13,.57,.39,.64,2.5,.59,3.96,1.08,4.38,1.48,.43,.39,.66,.61,.69,.64,1.05-1.02,1.95-1.97,2.71-2.86,.76-.89,1.21-1.43,1.38-1.63,.36-.43,.67-.79,.94-1.08,.26-.3,.44-.44,.54-.44,.13,0,.2,.08,.2,.25s-.36,.76-1.08,1.8c-.72,1.03-2.02,2.78-3.89,5.25,.03,0,.1,.22,.2,.67,.1,.44,.15,.96,.15,1.55,0,2.04-.54,3.82-1.63,5.35-1.08,1.53-2.32,2.72-3.72,3.57-1.4,.85-2.49,1.28-3.28,1.28-.92,0-1.56-.15-1.92-.44Zm4.29-3.05c1.02-.76,1.9-1.66,2.66-2.71,1.21-1.58,1.82-2.81,1.82-3.7,0-.39-.13-.67-.39-.84-1.74,1.71-3.35,3.37-4.83,4.98-.43,.49-.83,1.06-1.21,1.7-.38,.64-.58,1.11-.62,1.4,0,.2,.11,.3,.34,.3,.46,0,1.2-.38,2.22-1.13Z"/>
        <path class="cls-2" d="M234.87,119.66c-.62-.71-.94-2-.94-3.87,0-2.4,.46-4.72,1.38-6.97,.92-2.25,1.98-4.1,3.18-5.54,1.2-1.44,2.11-2.17,2.73-2.17,.59,0,1.19,.39,1.8,1.18,.61,.79,.91,1.56,.91,2.32,0,.59-.3,1.72-.89,3.37-.59,1.66-1.37,3.16-2.34,4.51-.97,1.35-2.03,2.02-3.18,2.02-.33,0-.62-.06-.89-.2,0,.16-.04,.52-.12,1.06-.08,.54-.12,1.06-.12,1.55,0,1.05,.18,1.69,.54,1.92h.1c.43-.03,1.09-.55,2-1.55,.9-1,1.99-2.34,3.28-4.02,1.31-1.67,2.04-2.51,2.17-2.51,.16,0,.3,.05,.39,.15,.1,.1,.15,.23,.15,.39s-.57,1.08-1.7,2.76c-1.13,1.67-2.33,3.2-3.6,4.58-1.26,1.38-2.27,2.07-3.03,2.07-.59,0-1.2-.35-1.82-1.06Zm2.46-7.66c.46-.07,1-.41,1.63-1.03,.62-.62,1.18-1.54,1.68-2.76,.49-1.21,.76-2.64,.79-4.29-.03,.03-.52,.56-1.45,1.58-.94,1.02-1.88,3.2-2.83,6.55l.2-.05Z"/>
        <path class="cls-2" d="M243.72,120.81c-.21-.16-.35-.31-.42-.44-.23-.26-.34-.89-.34-1.87,0-1.18,.27-3.36,.81-6.53,.54-3.17,1.13-6.07,1.77-8.69,.64-2.63,1.12-3.94,1.45-3.94,.1,0,.2,.05,.3,.15,.26,.26,.52,.6,.79,1.01,.26,.41,.39,.81,.39,1.21,0,.2-.15,.54-.44,1.03-.3,.49-.9,3.4-1.82,8.72l2.32-7c.26-.89,.48-1.59,.67-2.12,.18-.53,.32-.84,.42-.94,.1-.1,.26-.15,.49-.15,.36,0,.72,.22,1.08,.67,.36,.44,.54,.86,.54,1.26,0-.3-.39,2.35-1.18,7.93,1.48-2.73,2.51-4.94,3.1-6.65,.16-.49,.3-.79,.39-.89,.1-.1,.28-.15,.54-.15,.53,0,1.17,.54,1.92,1.63,.07,.07,.1,.16,.1,.3,0,.36-.25,1.38-.74,3.05-.49,1.54-.88,2.95-1.16,4.21-.28,1.26-.42,2.49-.42,3.67,0,1.02,.13,1.86,.39,2.51,.49-.36,.96-.99,1.4-1.9,.44-.9,.91-2.04,1.4-3.42,.07-.16,.21-.53,.44-1.08,.23-.56,.42-.97,.57-1.23,.15-.26,.27-.39,.37-.39,.23,0,.34,.16,.34,.49,0,.3-.25,1.26-.76,2.91-.51,1.64-1.13,3.14-1.87,4.51-.74,1.36-1.5,2.04-2.29,2.04-.59,0-1.08-.33-1.48-.99-.39-.66-.59-1.71-.59-3.15,0-1.15,.16-2.71,.49-4.68-.72,1.48-1.46,2.81-2.22,3.99-.76,1.18-1.31,1.77-1.68,1.77-.26,0-.46-.17-.59-.52-.13-.34-.2-.91-.2-1.7,0-1.05,.13-2.73,.39-5.02l-2.66,6.21c-.26,.59-.54,1.51-.84,2.76-.1,.46-.21,.86-.32,1.21-.12,.35-.25,.52-.42,.52-.1-.03-.25-.13-.47-.3Z"/>
        <path class="cls-2" d="M254.11,129.95c-.38-.34-.57-.65-.57-.91,4.73-18.98,7.16-28.47,7.29-28.47h.05s.09,0,.17-.02c.08-.02,.22-.02,.42-.02,.49,0,.89,.08,1.18,.25,.3,.16,.44,.41,.44,.74,0,.17-.11,.49-.32,.96-.21,.48-.73,2.08-1.55,4.8,.76-1.77,1.5-3.25,2.24-4.43,.74-1.18,1.53-1.77,2.39-1.77l.3,.05c.07,0,.34,.03,.81,.1,.48,.07,.91,.42,1.31,1.06,.39,.64,.59,1.55,.59,2.73,0,1.61-.33,3.67-.99,6.18-.66,2.51-1.65,4.73-2.98,6.65-1.33,1.92-2.95,2.88-4.85,2.88-.46,0-.89-.05-1.28-.15-1.12,4.01-1.9,6.66-2.34,7.96-.44,1.3-.85,1.95-1.21,1.95s-.73-.17-1.11-.52Zm8.57-13.97c1.1-1.74,1.99-3.69,2.66-5.86,.67-2.17,1.01-4.02,1.01-5.57,0-1.18-.16-1.77-.49-1.77-1.02,0-2.06,1.54-3.13,4.63-1.07,3.09-2.18,6.72-3.33,10.89l-.25,.94c1.25-.43,2.42-1.51,3.52-3.25Z"/>
        <path class="cls-2" d="M268.57,120.67c-.2-.1-.46-.3-.79-.59-.33-.3-.54-.59-.64-.89v-.15c0-.13,.03-.26,.1-.39,.1-.53,.26-1.48,.49-2.86,.23-1.38,.48-3.09,.74-5.12,.62-4.79,.94-7.96,.94-9.51,0-.53,.15-.79,.44-.79,.23,0,.43,.12,.59,.35,.26,.3,.5,.66,.71,1.08,.21,.43,.3,.8,.27,1.13l-.89,7.49c1.35-3.15,2.43-5.4,3.25-6.75,1.12-1.84,2.09-2.76,2.91-2.76,.3-.03,.56,.05,.79,.25,.23,.2,.48,.48,.74,.84,.1,.13,.15,.41,.15,.84,0,.53-.1,1.23-.3,2.12-.3,1.48-.58,2.43-.84,2.86-.2,.23-.38,.35-.54,.35-.23,0-.42-.12-.57-.37-.15-.25-.25-.52-.32-.81-.03-.07-.03-.11,0-.15,.03-.16,.16-.71,.37-1.63,.21-.92,.32-1.56,.32-1.92v-.05c-.69,.62-1.92,2.86-3.69,6.7-.89,1.94-1.69,3.88-2.41,5.84-.72,1.95-1.17,3.51-1.33,4.65,0,.1-.05,.18-.15,.25-.03,.03-.08,.05-.15,.05-.1,0-.16-.02-.2-.05Z"/>
        <path class="cls-2" d="M277.09,119.66c-.62-.71-.94-2-.94-3.87,0-2.4,.46-4.72,1.38-6.97,.92-2.25,1.98-4.1,3.18-5.54,1.2-1.44,2.11-2.17,2.73-2.17,.59,0,1.19,.39,1.8,1.18,.61,.79,.91,1.56,.91,2.32,0,.59-.3,1.72-.89,3.37-.59,1.66-1.37,3.16-2.34,4.51-.97,1.35-2.03,2.02-3.18,2.02-.33,0-.62-.06-.89-.2,0,.16-.04,.52-.12,1.06-.08,.54-.12,1.06-.12,1.55,0,1.05,.18,1.69,.54,1.92h.1c.43-.03,1.09-.55,2-1.55,.9-1,1.99-2.34,3.28-4.02,1.31-1.67,2.04-2.51,2.17-2.51,.16,0,.3,.05,.39,.15,.1,.1,.15,.23,.15,.39s-.57,1.08-1.7,2.76c-1.13,1.67-2.33,3.2-3.6,4.58-1.26,1.38-2.27,2.07-3.03,2.07-.59,0-1.2-.35-1.82-1.06Zm2.46-7.66c.46-.07,1-.41,1.63-1.03,.62-.62,1.18-1.54,1.68-2.76,.49-1.21,.76-2.64,.79-4.29-.03,.03-.52,.56-1.45,1.58-.94,1.02-1.88,3.2-2.83,6.55l.2-.05Z"/>
        <path class="cls-2" d="M292.85,118.62c-.1-.48-.15-.98-.15-1.5s.05-1.03,.15-1.5c.1-.48,.21-.78,.34-.91,.36-.13,.71-.2,1.03-.2,.59,0,.89,.28,.89,.84,0,.49-.12,1.13-.34,1.9-.23,.77-.49,1.41-.79,1.92-.3,.51-.56,.65-.79,.42-.13-.16-.25-.48-.34-.96Zm.15-8.15c0-2.59,.37-5.98,1.11-10.15,.74-4.17,1.63-8.41,2.68-12.71,.46,0,.85,.13,1.16,.39,.31,.26,.47,.66,.47,1.18,0,.33-.07,.69-.2,1.08-.69,2.1-1.41,5.53-2.17,10.27-.76,4.75-1.13,7.78-1.13,9.09,0,.76-.11,1.39-.32,1.9-.21,.51-.49,.76-.81,.76-.26,0-.51-.18-.74-.54-.03-.26-.05-.69-.05-1.28Z"/>
      </g>
      <g>
        <path class="cls-2" d="M171.35,9.8h5.2c2.6,0,4.47,1.75,4.47,4.45s-1.87,4.51-4.47,4.51h-3.2v5.26h-1.99V9.8Zm4.87,7.23c1.71,0,2.76-1.07,2.76-2.78s-1.05-2.72-2.74-2.72h-2.9v5.5h2.88Z"/>
        <path class="cls-2" d="M182.9,13.83h1.89v1.77c0,.42-.04,.76-.04,.76h.04c.46-1.49,1.65-2.66,3.22-2.66,.26,0,.5,.04,.5,.04v1.93s-.26-.06-.56-.06c-1.25,0-2.4,.89-2.86,2.4-.18,.58-.24,1.21-.24,1.83v4.17h-1.95V13.83Z"/>
        <path class="cls-2" d="M194.51,13.59c2.88,0,4.41,2.14,4.41,4.77,0,.26-.06,.85-.06,.85h-7.43c.1,2.24,1.69,3.36,3.51,3.36s3.02-1.19,3.02-1.19l.81,1.43s-1.51,1.45-3.95,1.45c-3.2,0-5.4-2.32-5.4-5.34,0-3.24,2.2-5.34,5.1-5.34Zm2.42,4.15c-.06-1.75-1.15-2.6-2.46-2.6-1.49,0-2.7,.93-2.98,2.6h5.44Z"/>
        <path class="cls-2" d="M201.56,15.54h-1.27v-1.57h1.27v-.48c0-3.36,2.54-3.79,3.83-3.79,.44,0,.75,.06,.75,.06v1.67s-.2-.04-.5-.04c-.75,0-2.14,.24-2.14,2.14v.44h2.42v1.57h-2.42v8.48h-1.93V15.54Z"/>
        <path class="cls-2" d="M211.9,13.59c2.88,0,4.41,2.14,4.41,4.77,0,.26-.06,.85-.06,.85h-7.43c.1,2.24,1.69,3.36,3.51,3.36s3.02-1.19,3.02-1.19l.81,1.43s-1.51,1.45-3.95,1.45c-3.2,0-5.4-2.32-5.4-5.34,0-3.24,2.2-5.34,5.1-5.34Zm2.42,4.15c-.06-1.75-1.15-2.6-2.46-2.6-1.49,0-2.7,.93-2.98,2.6h5.44Z"/>
        <path class="cls-2" d="M218.39,9.8h1.97v1.99h-1.97v-1.99Zm.02,4.03h1.95v10.19h-1.95V13.83Z"/>
        <path class="cls-2" d="M223.57,15.54h-1.33v-1.57h1.39v-2.94h1.89v2.94h2.46v1.57h-2.46v4.53c0,2.03,1.43,2.3,2.18,2.3,.28,0,.46-.04,.46-.04v1.73s-.28,.04-.68,.04c-1.31,0-3.91-.4-3.91-3.81v-4.75Z"/>
        <path class="cls-2" d="M229.94,13.83h1.95v6.08c0,1.41,.28,2.54,1.91,2.54,2.08,0,3.3-1.83,3.3-3.85v-4.77h1.95v10.19h-1.89v-1.35c0-.42,.04-.75,.04-.75h-.04c-.42,1.01-1.75,2.34-3.75,2.34-2.3,0-3.49-1.21-3.49-3.91v-6.53Z"/>
        <path class="cls-2" d="M241.85,13.83h1.89v1.77c0,.42-.04,.76-.04,.76h.04c.46-1.49,1.65-2.66,3.22-2.66,.26,0,.5,.04,.5,.04v1.93s-.26-.06-.56-.06c-1.25,0-2.4,.89-2.86,2.4-.18,.58-.24,1.21-.24,1.83v4.17h-1.95V13.83Z"/>
        <path class="cls-2" d="M254.44,17.66h.44v-.18c0-1.67-.95-2.24-2.24-2.24-1.57,0-2.84,.99-2.84,.99l-.81-1.43s1.47-1.21,3.81-1.21c2.58,0,4.03,1.41,4.03,3.99v6.45h-1.81v-.97c0-.46,.04-.81,.04-.81h-.04s-.83,2.01-3.26,2.01c-1.75,0-3.46-1.07-3.46-3.1,0-3.36,4.43-3.51,6.14-3.51Zm-2.26,5.04c1.65,0,2.72-1.73,2.72-3.24v-.32h-.5c-1.47,0-4.13,.1-4.13,1.93,0,.83,.64,1.63,1.91,1.63Z"/>
        <path class="cls-2" d="M268.33,13.59c2.36,0,3.14,1.61,3.14,1.61h.04s-.04-.3-.04-.68v-4.71h1.95v14.22h-1.85v-.97c0-.4,.02-.68,.02-.68h-.04s-.83,1.89-3.34,1.89c-2.76,0-4.49-2.18-4.49-5.34s1.91-5.34,4.61-5.34Zm.26,8.98c1.51,0,2.94-1.07,2.94-3.67,0-1.81-.95-3.63-2.88-3.63-1.61,0-2.94,1.33-2.94,3.65s1.19,3.65,2.88,3.65Z"/>
        <path class="cls-2" d="M280.6,13.59c2.88,0,4.41,2.14,4.41,4.77,0,.26-.06,.85-.06,.85h-7.43c.1,2.24,1.69,3.36,3.51,3.36s3.02-1.19,3.02-1.19l.81,1.43s-1.51,1.45-3.95,1.45c-3.2,0-5.4-2.32-5.4-5.34,0-3.24,2.2-5.34,5.1-5.34Zm2.42,4.15c-.06-1.75-1.15-2.6-2.46-2.6-1.49,0-2.7,.93-2.98,2.6h5.44Z"/>
      </g>
    </g>
  </g>
</svg>